<svg version="1.1" id="Layer_1" xmlns="http://www.w3.org/2000/svg" xmlns:xlink="http://www.w3.org/1999/xlink" x="0px" y="0px"
	 width="100%" viewBox="0 0 197 140" enable-background="new 0 0 197 140" xml:space="preserve">
<path fill="#1B0404" opacity="1.000000" stroke="none" 
	d="
M198.000000,24.000000 
	C198.000000,56.687561 198.000000,89.375122 197.736145,122.747513 
	C193.981537,129.288223 190.490768,135.144104 187.000000,141.000000 
	C125.053314,141.000000 63.106628,141.000000 1.079972,141.000000 
	C1.079972,94.426903 1.079972,47.853615 1.079972,1.000000 
	C61.687275,1.000000 122.374977,1.000000 183.684006,1.304460 
	C188.870224,9.072613 193.435104,16.536306 198.000000,24.000000 
M183.660172,78.573746 
	C185.414612,72.928177 186.760040,67.304581 182.306168,61.421665 
	C181.997803,60.474346 181.684662,59.528549 181.381775,58.579479 
	C175.147003,39.043068 162.687241,25.423967 143.001511,19.104525 
	C131.798462,15.508161 120.158470,15.325036 108.444107,15.684171 
	C97.916428,16.006926 94.666649,18.876955 94.650597,29.294352 
	C94.627777,44.101429 94.506493,58.908352 93.948792,74.461098 
	C93.646355,75.571373 93.085854,76.680435 93.080589,77.792114 
	C93.012802,92.106667 92.967659,106.422119 93.103477,120.735580 
	C93.116982,122.159088 94.355629,123.570976 95.576790,125.375267 
	C98.438469,127.418549 101.166145,130.983047 104.184395,131.248901 
	C119.454147,132.593979 134.955261,132.883682 149.016403,125.632370 
	C165.507401,117.127968 177.913345,104.696182 182.969650,85.677635 
	C182.972488,84.115486 182.975327,82.553329 182.828659,80.331169 
	C182.896225,79.888336 182.963806,79.445511 183.660172,78.573746 
M7.586903,55.002254 
	C6.765913,62.720425 5.104873,70.460686 5.307135,78.151947 
	C5.674323,92.114716 11.653625,104.009567 22.475864,112.826408 
	C37.271767,124.880569 54.496685,127.526558 72.864929,123.874306 
	C80.476456,122.360863 82.473129,119.468544 82.080444,111.695953 
	C81.715157,104.465607 80.554100,103.792580 73.579987,106.078514 
	C50.843021,113.531075 30.081181,103.259865 25.588102,81.253807 
	C22.442211,65.845963 29.209747,49.747681 42.408318,42.838917 
	C53.538292,37.012951 64.614594,38.965508 75.452293,43.892353 
	C77.776237,44.948826 80.082268,46.223019 81.025581,42.846161 
	C83.249054,34.886635 82.961624,26.596437 72.633369,23.666010 
	C69.774002,22.854721 66.809509,22.117823 63.860924,21.963167 
	C36.119457,20.508106 18.052357,28.707907 7.586903,55.002254 
z"/>
<path fill="#0F0F0F" opacity="1.000000" stroke="none" 
	d="
M198.000000,23.531261 
	C193.435104,16.536306 188.870224,9.072613 184.152664,1.304460 
	C188.610733,1.000000 193.221466,1.000000 198.000000,1.000000 
	C198.000000,8.353548 198.000000,15.708037 198.000000,23.531261 
z"/>
<path fill="#0F0F0F" opacity="1.000000" stroke="none" 
	d="
M187.482956,141.000000 
	C190.490768,135.144104 193.981537,129.288223 197.736145,123.216171 
	C198.000000,128.901917 198.000000,134.803818 198.000000,141.000000 
	C194.660889,141.000000 191.313400,141.000000 187.482956,141.000000 
z"/>
<path fill="#04A5C6" opacity="1.000000" stroke="none" 
	d="
M7.686973,54.624290 
	C18.052357,28.707907 36.119457,20.508106 63.860924,21.963167 
	C66.809509,22.117823 69.774002,22.854721 72.633369,23.666010 
	C82.961624,26.596437 83.249054,34.886635 81.025581,42.846161 
	C80.082268,46.223019 77.776237,44.948826 75.452293,43.892353 
	C64.614594,38.965508 53.538292,37.012951 42.408318,42.838917 
	C29.209747,49.747681 22.442211,65.845963 25.588102,81.253807 
	C30.081181,103.259865 50.843021,113.531075 73.579987,106.078514 
	C80.554100,103.792580 81.715157,104.465607 82.080444,111.695953 
	C82.473129,119.468544 80.476456,122.360863 72.864929,123.874306 
	C54.496685,127.526558 37.271767,124.880569 22.475864,112.826408 
	C11.653625,104.009567 5.674323,92.114716 5.307135,78.151947 
	C5.104873,70.460686 6.765913,62.720425 7.686973,54.624290 
M27.735718,44.093082 
	C28.124546,43.158924 28.513372,42.224766 28.902199,41.290600 
	C27.957632,41.595333 27.013067,41.900066 25.491871,42.482716 
	C24.334808,43.865406 23.177746,45.248093 21.468012,47.097446 
	C20.272223,49.450687 19.076431,51.803925 17.880642,54.157166 
	C18.434540,54.434669 18.988438,54.712173 19.542337,54.989677 
	C20.919968,52.858807 22.297600,50.727940 24.091507,48.155170 
	C25.127161,46.901623 26.162813,45.648079 27.735718,44.093082 
M27.818699,106.908501 
	C28.859192,107.664680 29.899685,108.420860 31.355410,109.717407 
	C42.525326,117.738274 55.067722,119.341202 68.234024,117.187126 
	C70.772354,116.771851 73.051926,114.774895 75.450859,113.507584 
	C75.218292,113.024765 74.985718,112.541954 74.753151,112.059135 
	C74.294342,112.059135 73.727089,111.881195 73.392555,112.085098 
	C64.579659,117.456444 55.098206,115.728676 46.045319,113.741173 
	C40.811485,112.592110 36.127346,108.939240 30.951817,105.929680 
	C30.372282,105.514359 29.792747,105.099037 28.853380,104.134224 
	C26.279287,101.403053 23.705193,98.671890 20.755486,95.280434 
	C17.058264,85.994072 15.084698,76.430832 16.383410,65.861107 
	C16.448400,65.287666 16.513391,64.714218 16.911678,63.373520 
	C17.963045,60.104832 19.014410,56.836140 20.065777,53.567451 
	C19.563498,53.411407 19.061216,53.255367 18.558937,53.099323 
	C15.379758,57.901482 13.530709,63.184383 13.284788,69.693573 
	C13.320794,70.096367 13.356801,70.499153 13.239974,71.716118 
	C13.958786,77.286835 14.270761,82.954613 15.567058,88.387543 
	C16.220844,91.127640 18.658587,93.442093 19.952698,96.634232 
	C22.465918,99.872169 24.979137,103.110100 27.818699,106.908501 
M50.098637,29.809683 
	C44.775589,31.004753 38.993328,31.158379 35.469334,36.523304 
	C40.646996,35.009102 45.824661,33.494900 51.926876,32.054947 
	C59.973042,32.817677 68.019211,33.580402 76.065376,34.343132 
	C68.334549,29.172401 59.879295,28.086582 50.098637,29.809683 
z"/>
<path fill="#E24C4C" opacity="1.000000" stroke="none" 
	d="
M182.334442,85.839058 
	C177.913345,104.696182 165.507401,117.127968 149.016403,125.632370 
	C134.955261,132.883682 119.454147,132.593979 104.184395,131.248901 
	C101.166145,130.983047 98.438469,127.418549 95.266678,124.714569 
	C94.879646,121.230850 94.757072,118.408218 94.733513,115.584763 
	C94.617065,101.628403 94.526787,87.671837 94.427277,73.715340 
	C94.506493,58.908352 94.627777,44.101429 94.650597,29.294352 
	C94.666649,18.876955 97.916428,16.006926 108.444107,15.684171 
	C120.158470,15.325036 131.798462,15.508161 143.001511,19.104525 
	C162.687241,25.423967 175.147003,39.043068 181.381775,58.579479 
	C181.684662,59.528549 181.997803,60.474346 182.510941,62.164391 
	C182.820938,68.272301 182.926147,73.637489 183.031372,79.002678 
	C182.963806,79.445511 182.896225,79.888336 182.811127,81.059097 
	C182.640533,83.137703 182.487503,84.488380 182.334442,85.839058 
M156.622314,113.139702 
	C174.889572,100.732315 179.323212,82.403435 175.495499,62.497955 
	C171.865402,43.620235 158.705704,28.532301 136.028976,24.210184 
	C126.490875,22.392248 116.553154,22.626272 106.789467,22.058697 
	C102.900169,21.832605 100.941727,23.899248 100.955956,27.828739 
	C100.977058,33.657429 100.958954,39.486259 100.962753,45.315022 
	C100.978622,69.630157 100.970230,93.945366 101.033585,118.260376 
	C101.047897,123.754128 102.333702,125.000542 107.868660,125.083115 
	C113.529488,125.167572 119.204742,125.308456 124.852699,125.017479 
	C136.395889,124.422791 147.178375,121.519562 156.622314,113.139702 
z"/>
<path fill="#0B0101" opacity="1.000000" stroke="none" 
	d="
M94.188034,74.088219 
	C94.526787,87.671837 94.617065,101.628403 94.733513,115.584763 
	C94.757072,118.408218 94.879646,121.230850 94.991119,124.521057 
	C94.355629,123.570976 93.116982,122.159088 93.103477,120.735580 
	C92.967659,106.422119 93.012802,92.106667 93.080589,77.792114 
	C93.085854,76.680435 93.646355,75.571373 94.188034,74.088219 
z"/>
<path fill="#0F0203" opacity="1.000000" stroke="none" 
	d="
M183.345764,78.788208 
	C182.926147,73.637489 182.820938,68.272301 182.741882,62.437424 
	C186.760040,67.304581 185.414612,72.928177 183.345764,78.788208 
z"/>
<path fill="#0F0203" opacity="1.000000" stroke="none" 
	d="
M182.652054,85.758347 
	C182.487503,84.488380 182.640533,83.137703 182.885864,81.389099 
	C182.975327,82.553329 182.972488,84.115486 182.652054,85.758347 
z"/>
<path fill="#181C20" opacity="1.000000" stroke="none" 
	d="
M31.195814,106.413223 
	C36.127346,108.939240 40.811485,112.592110 46.045319,113.741173 
	C55.098206,115.728676 64.579659,117.456444 73.392555,112.085098 
	C73.727089,111.881195 74.294342,112.059135 74.753151,112.059135 
	C74.985718,112.541954 75.218292,113.024765 75.450859,113.507584 
	C73.051926,114.774895 70.772354,116.771851 68.234024,117.187126 
	C55.067722,119.341202 42.525326,117.738274 31.171623,108.984993 
	C31.057161,107.639465 31.126488,107.026344 31.195814,106.413223 
z"/>
<path fill="#152830" opacity="1.000000" stroke="none" 
	d="
M16.113785,66.385239 
	C15.084698,76.430832 17.058264,85.994072 20.733143,95.629471 
	C20.710798,95.978516 20.289675,95.949005 20.289675,95.949005 
	C18.658587,93.442093 16.220844,91.127640 15.567058,88.387543 
	C14.270761,82.954613 13.958786,77.286835 13.405409,71.140533 
	C13.529561,70.078415 13.488279,69.591866 13.446998,69.105324 
	C13.530709,63.184383 15.379758,57.901482 18.558937,53.099323 
	C19.061216,53.255367 19.563498,53.411407 20.065777,53.567451 
	C19.014410,56.836140 17.963045,60.104832 16.633463,64.021423 
	C16.274759,65.241295 16.194271,65.813263 16.113785,66.385239 
z"/>
<path fill="#162D37" opacity="1.000000" stroke="none" 
	d="
M50.923389,29.802347 
	C59.879295,28.086582 68.334549,29.172401 76.065376,34.343132 
	C68.019211,33.580402 59.973042,32.817677 51.452797,31.654713 
	C50.960278,30.770435 50.941833,30.286392 50.923389,29.802347 
z"/>
<path fill="#152E37" opacity="1.000000" stroke="none" 
	d="
M50.511013,29.806015 
	C50.941833,30.286392 50.960278,30.770435 50.990520,31.617590 
	C45.824661,33.494900 40.646996,35.009102 35.469334,36.523304 
	C38.993328,31.158379 44.775589,31.004753 50.511013,29.806015 
z"/>
<path fill="#181B21" opacity="1.000000" stroke="none" 
	d="
M20.121185,96.291618 
	C20.289675,95.949005 20.710798,95.978516 20.920948,95.959625 
	C23.705193,98.671890 26.279287,101.403053 28.772316,104.712006 
	C28.291622,105.642540 27.891991,105.995293 27.492359,106.348038 
	C24.979137,103.110100 22.465918,99.872169 20.121185,96.291618 
z"/>
<path fill="#152830" opacity="1.000000" stroke="none" 
	d="
M23.675232,48.597073 
	C22.297600,50.727940 20.919968,52.858807 19.542337,54.989677 
	C18.988438,54.712173 18.434540,54.434669 17.880642,54.157166 
	C19.076431,51.803925 20.272223,49.450687 22.154366,47.358734 
	C23.118891,47.945705 23.397062,48.271389 23.675232,48.597073 
z"/>
<path fill="#152830" opacity="1.000000" stroke="none" 
	d="
M22.430702,47.125404 
	C23.177746,45.248093 24.334808,43.865406 25.928200,42.613930 
	C26.642511,43.294945 26.920490,43.844738 27.198467,44.394535 
	C26.162813,45.648079 25.127161,46.901623 23.883369,48.376122 
	C23.397062,48.271389 23.118891,47.945705 22.430702,47.125404 
z"/>
<path fill="#152F38" opacity="1.000000" stroke="none" 
	d="
M27.467094,44.243809 
	C26.920490,43.844738 26.642511,43.294945 26.216516,42.474972 
	C27.013067,41.900066 27.957632,41.595333 28.902199,41.290604 
	C28.513372,42.224766 28.124546,43.158924 27.467094,44.243809 
z"/>
<path fill="#162F37" opacity="1.000000" stroke="none" 
	d="
M27.655529,106.628265 
	C27.891991,105.995293 28.291622,105.642540 28.952232,104.986755 
	C29.792747,105.099037 30.372282,105.514359 31.073814,106.171455 
	C31.126488,107.026344 31.057161,107.639465 30.964006,108.714813 
	C29.899685,108.420860 28.859192,107.664680 27.655529,106.628265 
z"/>
<path fill="#152F38" opacity="1.000000" stroke="none" 
	d="
M16.248596,66.123169 
	C16.194271,65.813263 16.274759,65.241295 16.466816,64.405045 
	C16.513391,64.714218 16.448400,65.287666 16.248596,66.123169 
z"/>
<path fill="#152F38" opacity="1.000000" stroke="none" 
	d="
M13.365892,69.399445 
	C13.488279,69.591866 13.529561,70.078415 13.481825,70.733452 
	C13.356801,70.499153 13.320794,70.096367 13.365892,69.399445 
z"/>
<path fill="#FD806F" opacity="1.000000" stroke="none" 
	d="
M156.355499,113.374359 
	C147.178375,121.519562 136.395889,124.422791 124.852699,125.017479 
	C119.204742,125.308456 113.529488,125.167572 107.868660,125.083115 
	C102.333702,125.000542 101.047897,123.754128 101.033585,118.260376 
	C100.970230,93.945366 100.978622,69.630157 100.962753,45.315022 
	C100.958954,39.486259 100.977058,33.657429 100.955956,27.828739 
	C100.941727,23.899248 102.900169,21.832605 106.789467,22.058697 
	C116.553154,22.626272 126.490875,22.392248 136.028976,24.210184 
	C158.705704,28.532301 171.865402,43.620235 175.495499,62.497955 
	C179.323212,82.403435 174.889572,100.732315 156.355499,113.374359 
M109.786545,99.020882 
	C109.791275,100.990799 109.796013,102.960716 109.744843,105.868248 
	C109.752899,108.194244 109.928482,110.534401 109.733185,112.843201 
	C109.358582,117.271683 111.033752,119.573807 115.671814,118.972260 
	C123.195023,117.996521 131.010376,117.922478 138.166382,115.723434 
	C158.395020,109.507156 168.255432,94.263313 169.971069,74.100426 
	C170.447525,52.859116 154.383560,32.111698 130.482239,30.202438 
	C124.150826,29.887232 117.812683,29.318146 111.494080,29.485819 
	C110.327034,29.516787 108.356339,32.487862 108.284050,34.167656 
	C108.086426,38.759575 108.704132,43.386581 108.821548,48.761585 
	C108.176865,52.312595 107.022804,55.977604 110.999039,59.098194 
	C110.998466,59.902763 110.997887,60.707329 110.373756,61.913490 
	C110.584190,63.778263 110.794624,65.643036 111.004501,67.835098 
	C111.004662,68.053299 111.005913,68.271492 110.343246,69.004097 
	C109.918190,69.874779 109.111580,70.752266 109.126976,71.615089 
	C109.284981,80.476097 109.576164,89.334724 109.786545,99.020882 
z"/>
<path fill="#FD7F6F" opacity="1.000000" stroke="none" 
	d="
M110.997314,61.511898 
	C110.997887,60.707329 110.998466,59.902763 111.182678,58.424088 
	C111.244614,54.499969 111.122925,51.249966 111.015396,47.549644 
	C111.235817,44.127853 111.272675,41.132740 111.683372,38.189796 
	C112.554115,31.950146 114.325287,30.678907 120.642128,31.443878 
	C124.423317,31.901783 128.197678,32.415989 132.358200,32.969276 
	C154.721909,37.998650 166.567917,54.570709 167.940750,75.395630 
	C165.394531,97.886711 144.921295,115.509125 123.719955,115.910439 
	C110.175705,116.166809 112.424805,116.349960 111.829369,104.578468 
	C111.861000,101.444977 111.845840,98.761719 111.854675,95.608780 
	C111.588531,86.255959 111.298393,77.372810 111.008255,68.489670 
	C111.005913,68.271492 111.004662,68.053299 111.176849,67.313202 
	C111.231895,65.031502 111.114609,63.271702 110.997314,61.511898 
M152.199326,52.344437 
	C146.932877,45.745644 140.469376,40.991341 131.935654,39.712784 
	C117.901527,37.610134 118.386154,38.614647 118.239899,50.820644 
	C118.034874,67.931068 118.648026,85.051834 118.949966,102.167488 
	C119.046059,107.614265 120.947418,109.627335 126.288681,108.837402 
	C140.077469,106.798187 151.434204,100.595230 157.153870,87.296112 
	C162.349579,75.215302 160.514832,63.545494 152.199326,52.344437 
z"/>
<path fill="#EB5450" opacity="1.000000" stroke="none" 
	d="
M111.782578,105.028694 
	C112.424805,116.349960 110.175705,116.166809 123.719955,115.910439 
	C144.921295,115.509125 165.394531,97.886711 168.258545,75.396057 
	C169.055817,75.002174 169.478485,75.003143 169.901154,75.004105 
	C168.255432,94.263313 158.395020,109.507156 138.166382,115.723434 
	C131.010376,117.922478 123.195023,117.996521 115.671814,118.972260 
	C111.033752,119.573807 109.358582,117.271683 109.733185,112.843201 
	C109.928482,110.534401 109.752899,108.194244 110.106247,105.420059 
	C110.905952,104.990807 111.344269,105.009750 111.782578,105.028694 
z"/>
<path fill="#EB5551" opacity="1.000000" stroke="none" 
	d="
M169.936111,74.552261 
	C169.478485,75.003143 169.055817,75.002174 168.315338,75.000778 
	C166.567917,54.570709 154.721909,37.998650 132.226868,32.698402 
	C131.474243,31.797157 131.236008,31.231169 130.997787,30.665180 
	C154.383560,32.111698 170.447525,52.859116 169.936111,74.552261 
z"/>
<path fill="#ED5853" opacity="1.000000" stroke="none" 
	d="
M130.740021,30.433809 
	C131.236008,31.231169 131.474243,31.797157 131.843781,32.634018 
	C128.197678,32.415989 124.423317,31.901783 120.642128,31.443878 
	C114.325287,30.678907 112.554115,31.950146 111.683372,38.189796 
	C111.272675,41.132740 111.235817,44.127853 110.681679,47.549545 
	C109.888840,47.999741 109.443893,47.999718 108.998947,47.999695 
	C108.704132,43.386581 108.086426,38.759575 108.284050,34.167656 
	C108.356339,32.487862 110.327034,29.516787 111.494080,29.485819 
	C117.812683,29.318146 124.150826,29.887232 130.740021,30.433809 
z"/>
<path fill="#EB5450" opacity="1.000000" stroke="none" 
	d="
M110.675751,68.746887 
	C111.298393,77.372810 111.588531,86.255959 111.661697,95.815506 
	C110.906555,97.059273 110.368378,97.626640 109.830200,98.194016 
	C109.576164,89.334724 109.284981,80.476097 109.126976,71.615089 
	C109.111580,70.752266 109.918190,69.874779 110.675751,68.746887 
z"/>
<path fill="#EB5450" opacity="1.000000" stroke="none" 
	d="
M108.910248,48.380638 
	C109.443893,47.999718 109.888840,47.999741 110.667511,47.999859 
	C111.122925,51.249966 111.244614,54.499969 111.183014,58.122143 
	C107.022804,55.977604 108.176865,52.312595 108.910248,48.380638 
z"/>
<path fill="#ED5853" opacity="1.000000" stroke="none" 
	d="
M109.808365,98.607445 
	C110.368378,97.626640 110.906555,97.059273 111.637711,96.285179 
	C111.845840,98.761719 111.861000,101.444977 111.829369,104.578468 
	C111.344269,105.009750 110.905952,104.990807 110.134201,104.951248 
	C109.796013,102.960716 109.791275,100.990799 109.808365,98.607445 
z"/>
<path fill="#EB5450" opacity="1.000000" stroke="none" 
	d="
M110.685532,61.712692 
	C111.114609,63.271702 111.231895,65.031502 111.177124,67.149551 
	C110.794624,65.643036 110.584190,63.778263 110.685532,61.712692 
z"/>
<path fill="#E34C4C" opacity="1.000000" stroke="none" 
	d="
M152.404327,52.640114 
	C160.514832,63.545494 162.349579,75.215302 157.153870,87.296112 
	C151.434204,100.595230 140.077469,106.798187 126.288681,108.837402 
	C120.947418,109.627335 119.046059,107.614265 118.949966,102.167488 
	C118.648026,85.051834 118.034874,67.931068 118.239899,50.820644 
	C118.386154,38.614647 117.901527,37.610134 131.935654,39.712784 
	C140.469376,40.991341 146.932877,45.745644 152.404327,52.640114 
M124.859879,56.523640 
	C124.859879,71.730049 124.859879,86.936462 124.859879,102.880501 
	C127.892319,102.184860 129.790451,101.828758 131.643600,101.311516 
	C144.141571,97.823151 152.733658,87.785362 153.529785,75.796120 
	C154.305527,64.113960 146.948227,52.323669 135.702881,47.227993 
	C126.241112,42.940525 124.541107,44.007656 124.851440,54.036484 
	C124.866859,54.534897 124.857063,55.034092 124.859879,56.523640 
z"/>
<path fill="#1E0404" opacity="1.000000" stroke="none" 
	d="
M124.859444,56.028282 
	C124.857063,55.034092 124.866859,54.534897 124.851440,54.036484 
	C124.541107,44.007656 126.241112,42.940525 135.702881,47.227993 
	C146.948227,52.323669 154.305527,64.113960 153.529785,75.796120 
	C152.733658,87.785362 144.141571,97.823151 131.643600,101.311516 
	C129.790451,101.828758 127.892319,102.184860 124.859879,102.880501 
	C124.859879,86.936462 124.859879,71.730049 124.859444,56.028282 
z"/>
</svg>