<svg version="1.1" id="Layer_1" xmlns="http://www.w3.org/2000/svg" xmlns:xlink="http://www.w3.org/1999/xlink" x="0px" y="0px"
	 width="100%" viewBox="0 0 800 800" enable-background="new 0 0 800 800" xml:space="preserve">
<path fill="#1E2125" opacity="1.000000" stroke="none" 
	d="
M801.000000,288.000000 
	C801.000000,459.333344 801.000000,630.166687 801.000000,801.000000 
	C534.333313,801.000000 267.666656,801.000000 1.000000,801.000000 
	C1.000000,534.333313 1.000000,267.666656 1.000000,1.000000 
	C267.666656,1.000000 534.333313,1.000000 801.000000,1.000000 
	C801.000000,96.500000 801.000000,192.000000 801.000000,288.000000 
M767.054138,318.309540 
	C746.372742,232.893829 700.982971,163.401230 630.600769,111.053383 
	C559.417175,58.109425 478.866241,35.131329 390.253082,40.825230 
	C331.945282,44.571831 277.421967,61.266441 228.085190,92.306190 
	C125.943047,156.567917 67.900742,249.113510 55.786388,369.427124 
	C49.427139,432.583984 60.501369,493.212738 86.813232,551.002686 
	C113.152107,608.851868 152.330734,656.308044 203.640976,693.599792 
	C253.531860,729.859985 309.259644,751.693420 370.534271,759.388306 
	C416.389801,765.146912 461.718018,762.363220 506.341278,750.664001 
	C562.556580,735.925659 612.614319,709.385315 655.912842,670.397461 
	C688.426270,641.121033 715.332642,607.457275 735.474426,568.543579 
	C758.023804,524.978455 771.812073,478.875977 775.322754,429.815033 
	C777.991760,392.516296 775.914001,355.585144 767.054138,318.309540 
z"/>
<path fill="#FB816F" opacity="1.000000" stroke="none" 
	d="
M767.130249,318.719910 
	C775.914001,355.585144 777.991760,392.516296 775.322754,429.815033 
	C771.812073,478.875977 758.023804,524.978455 735.474426,568.543579 
	C715.332642,607.457275 688.426270,641.121033 655.912842,670.397461 
	C612.614319,709.385315 562.556580,735.925659 506.341278,750.664001 
	C461.718018,762.363220 416.389801,765.146912 370.534271,759.388306 
	C309.259644,751.693420 253.531860,729.859985 203.640976,693.599792 
	C152.330734,656.308044 113.152107,608.851868 86.813232,551.002686 
	C60.501369,493.212738 49.427139,432.583984 55.786388,369.427124 
	C67.900742,249.113510 125.943047,156.567917 228.085190,92.306190 
	C277.421967,61.266441 331.945282,44.571831 390.253082,40.825230 
	C478.866241,35.131329 559.417175,58.109425 630.600769,111.053383 
	C700.982971,163.401230 746.372742,232.893829 767.130249,318.719910 
M223.265610,688.292664 
	C290.687469,732.523193 364.563507,751.559326 444.976807,745.127747 
	C487.466187,741.729309 528.176453,731.180603 566.090515,711.858643 
	C669.493469,659.161926 733.301453,575.894714 755.395447,461.670044 
	C764.995789,412.037079 762.562744,362.440704 749.673218,313.578339 
	C731.108154,243.200241 693.947388,184.240753 638.376465,137.270065 
	C579.591431,87.582687 511.464294,60.478107 434.600250,56.110058 
	C382.973602,53.176205 332.996063,61.257870 285.064819,81.024712 
	C214.346344,110.188995 158.747696,157.443802 119.429863,222.860092 
	C75.327141,296.237366 60.966858,375.775360 75.031273,460.266235 
	C82.537949,505.362030 98.979942,547.139221 123.410378,585.724121 
	C149.345551,626.685608 182.673187,660.551270 223.265610,688.292664 
z"/>
<path fill="#1E2125" opacity="1.000000" stroke="none" 
	d="
M222.959549,688.103638 
	C182.673187,660.551270 149.345551,626.685608 123.410378,585.724121 
	C98.979942,547.139221 82.537949,505.362030 75.031273,460.266235 
	C60.966858,375.775360 75.327141,296.237366 119.429863,222.860092 
	C158.747696,157.443802 214.346344,110.188995 285.064819,81.024712 
	C332.996063,61.257870 382.973602,53.176205 434.600250,56.110058 
	C511.464294,60.478107 579.591431,87.582687 638.376465,137.270065 
	C693.947388,184.240753 731.108154,243.200241 749.673218,313.578339 
	C762.562744,362.440704 764.995789,412.037079 755.395447,461.670044 
	C733.301453,575.894714 669.493469,659.161926 566.090515,711.858643 
	C528.176453,731.180603 487.466187,741.729309 444.976807,745.127747 
	C364.563507,751.559326 290.687469,732.523193 222.959549,688.103638 
M373.141846,290.220917 
	C373.350586,280.590576 373.979584,270.944458 373.619446,261.335449 
	C373.381897,254.996399 371.792175,248.268112 366.336090,244.372650 
	C359.353790,239.387543 352.089569,233.978455 344.092896,231.383621 
	C318.163086,222.969681 291.106476,222.123077 264.517273,225.973114 
	C245.226822,228.766342 226.327988,235.072464 207.646881,241.040314 
	C188.600189,247.124954 172.001221,257.495728 160.099319,274.225006 
	C153.628860,283.319916 146.860306,292.209900 140.601974,301.446930 
	C128.387695,319.474640 120.394012,339.270782 116.699051,360.766541 
	C113.031212,382.104462 113.495567,403.560577 114.487717,425.777496 
	C114.396820,432.919647 113.412354,440.183075 114.362747,447.183868 
	C119.774086,487.044708 134.824936,522.470520 163.784424,551.210205 
	C178.781845,566.093811 196.471329,576.975769 215.823257,585.032776 
	C250.282837,599.379822 286.019958,604.932129 323.293915,600.008118 
	C337.408081,598.143555 351.257996,595.974182 364.122162,589.438171 
	C370.426788,586.234924 373.483063,581.215149 373.952087,574.369873 
	C374.281677,569.559875 374.785950,564.746704 374.779968,559.935486 
	C374.777130,557.635010 373.770264,555.335693 373.172485,552.207153 
	C374.618011,539.765625 375.161346,527.385864 372.588226,514.955505 
	C370.498718,504.861176 364.807800,504.456665 357.536591,507.502594 
	C342.671204,513.729797 327.359711,518.041138 311.353394,519.446106 
	C271.638580,522.932007 237.405838,512.612915 209.699615,481.937592 
	C190.857712,461.076538 182.254837,437.282959 181.472321,409.269043 
	C183.131393,393.325287 188.013901,378.496063 196.098312,364.597046 
	C211.633179,337.889038 233.536133,319.548950 263.789978,311.755798 
	C276.862488,308.388458 290.339172,307.033051 303.362091,309.632660 
	C321.436401,313.240601 340.297211,315.126678 356.127502,326.291992 
	C358.192566,327.748505 361.097168,328.962372 363.479462,328.755066 
	C365.866760,328.547363 369.339020,326.962830 370.173340,325.042328 
	C374.906067,314.148071 376.228912,302.743439 373.141846,290.220917 
M419.489227,569.712646 
	C423.760315,585.808411 436.012238,595.636536 453.606750,597.057373 
	C479.995331,599.188354 506.388245,597.668030 532.749573,596.657349 
	C541.301025,596.329529 549.831787,593.931519 558.250305,591.960693 
	C581.684204,586.474731 605.282654,580.385681 624.586975,565.524597 
	C643.135620,551.245178 660.049866,534.822144 677.442322,519.076050 
	C681.721741,515.201721 685.461731,510.570099 688.766174,505.811920 
	C697.429260,493.337402 703.111267,479.624298 708.334045,465.208618 
	C720.955139,430.372101 719.526550,395.067902 715.200256,359.605865 
	C712.924561,340.952454 703.539673,324.203827 694.812439,307.783569 
	C688.210022,295.361206 681.032898,282.597870 671.441223,272.530396 
	C641.044556,240.625854 605.103455,218.101074 560.617493,210.289719 
	C534.772095,205.751495 509.204376,200.726547 482.816864,203.871429 
	C479.034973,204.322144 475.201050,204.525497 471.391968,204.516861 
	C464.905640,204.502151 458.395874,203.792160 451.938507,204.147446 
	C434.652496,205.098511 422.528320,215.188690 419.320251,231.275146 
	C418.319183,236.295029 418.042786,241.534760 418.069946,246.670517 
	C418.157959,263.325195 418.843567,279.980164 418.742126,296.631622 
	C418.570740,324.773438 416.919830,352.945587 417.799866,381.045227 
	C419.145691,424.019470 420.523590,466.949432 419.147491,509.953064 
	C418.519501,529.579041 419.186249,549.246521 419.489227,569.712646 
z"/>
<path fill="#00ADCF" opacity="1.000000" stroke="none" 
	d="
M114.844727,425.042694 
	C113.495567,403.560577 113.031212,382.104462 116.699051,360.766541 
	C120.394012,339.270782 128.387695,319.474640 140.601974,301.446930 
	C146.860306,292.209900 153.628860,283.319916 160.099319,274.225006 
	C172.001221,257.495728 188.600189,247.124954 207.646881,241.040314 
	C226.327988,235.072464 245.226822,228.766342 264.517273,225.973114 
	C291.106476,222.123077 318.163086,222.969681 344.092896,231.383621 
	C352.089569,233.978455 359.353790,239.387543 366.336090,244.372650 
	C371.792175,248.268112 373.381897,254.996399 373.619446,261.335449 
	C373.979584,270.944458 373.350586,280.590576 373.055176,290.999573 
	C372.783020,292.416870 372.592773,293.054199 372.412598,293.694366 
	C369.339203,304.613007 364.621063,306.335815 355.010468,300.029999 
	C353.899017,299.300751 352.914276,298.351746 351.747955,297.738037 
	C348.691925,296.130066 345.697021,294.245789 342.442780,293.209747 
	C336.593231,291.347504 330.498932,290.259552 324.634949,288.436188 
	C300.329193,280.878479 276.118500,280.731201 252.175186,289.614655 
	C207.939026,306.027130 175.510056,354.701538 181.125534,409.959473 
	C182.254837,437.282959 190.857712,461.076538 209.699615,481.937592 
	C237.405838,512.612915 271.638580,522.932007 311.353394,519.446106 
	C327.359711,518.041138 342.671204,513.729797 357.536591,507.502594 
	C364.807800,504.456665 370.498718,504.861176 372.588226,514.955505 
	C375.161346,527.385864 374.618011,539.765625 373.082581,552.964661 
	C371.176300,560.539795 365.486084,563.113770 359.820892,565.656616 
	C340.831116,574.180359 320.432831,575.413879 300.173645,576.012085 
	C275.165466,576.750488 250.768463,572.257202 227.143295,563.857117 
	C188.184143,550.004883 157.772690,525.902649 136.602295,490.025116 
	C124.660927,469.788055 119.644737,447.520020 114.844727,425.042694 
M248.287888,534.849731 
	C244.116455,533.209229 239.883347,531.708740 235.784058,529.904297 
	C216.125977,521.251343 197.907608,510.292450 183.645187,493.992767 
	C164.670029,472.307281 154.984940,446.492950 151.949478,417.166107 
	C151.628128,410.030334 150.930603,402.886475 151.083832,395.760895 
	C151.261902,387.480591 152.185822,379.216309 152.946854,370.149200 
	C158.757843,346.931946 168.143707,325.442474 184.229858,307.406219 
	C195.912964,294.306763 208.430817,281.669800 224.209900,273.859711 
	C243.283112,264.419128 263.994873,259.828735 285.381897,258.827423 
	C303.614746,257.973816 321.127502,261.516724 338.394836,266.993896 
	C343.440704,268.594452 348.707611,269.605835 353.945679,270.421570 
	C355.363708,270.642395 357.046844,269.161133 358.608276,268.461121 
	C357.828491,266.965271 357.431274,264.809998 356.198578,264.094788 
	C352.193573,261.771088 348.014221,259.609985 343.665771,258.041046 
	C328.538818,252.583130 312.914917,250.582275 296.810303,249.430939 
	C273.492706,247.763885 251.728363,253.415070 230.453461,260.805847 
	C215.082230,266.145721 201.218307,275.215363 190.459488,288.164032 
	C187.934143,291.203369 184.368423,293.354706 181.617294,296.235443 
	C177.388748,300.663269 173.208542,305.178925 169.437378,309.993713 
	C159.956360,322.098511 155.166611,336.583710 149.210114,350.497345 
	C142.418854,366.360809 140.833328,382.906708 141.356308,400.708038 
	C143.537567,416.927124 145.111816,433.262054 148.174561,449.312958 
	C149.556931,456.557495 153.903534,463.236420 157.077194,470.841797 
	C163.199158,480.360352 168.415634,490.637177 175.624329,499.245728 
	C192.653534,519.581909 214.468689,534.092468 239.369949,542.406799 
	C261.907990,549.932068 285.433502,555.199707 309.627747,551.852966 
	C320.941956,550.287842 332.171539,547.767578 343.236298,544.897095 
	C348.253693,543.595337 353.207520,540.885742 355.181793,534.234436 
	C354.987854,527.756531 354.011780,527.206360 348.120361,530.008606 
	C330.596558,538.343750 312.172638,543.243347 292.739349,541.546692 
	C278.069672,540.265991 263.542328,537.355164 248.287888,534.849731 
z"/>
<path fill="#E84D4D" opacity="1.000000" stroke="none" 
	d="
M419.377502,569.303894 
	C419.186249,549.246521 418.519501,529.579041 419.147491,509.953064 
	C420.523590,466.949432 419.145691,424.019470 417.799866,381.045227 
	C416.919830,352.945587 418.570740,324.773438 418.742126,296.631622 
	C418.843567,279.980164 418.157959,263.325195 418.069946,246.670517 
	C418.042786,241.534760 418.319183,236.295029 419.320251,231.275146 
	C422.528320,215.188690 434.652496,205.098511 451.938507,204.147446 
	C458.395874,203.792160 464.905640,204.502151 471.391968,204.516861 
	C475.201050,204.525497 479.034973,204.322144 482.816864,203.871429 
	C509.204376,200.726547 534.772095,205.751495 560.617493,210.289719 
	C605.103455,218.101074 641.044556,240.625854 671.441223,272.530396 
	C681.032898,282.597870 688.210022,295.361206 694.812439,307.783569 
	C703.539673,324.203827 712.924561,340.952454 715.200256,359.605865 
	C719.526550,395.067902 720.955139,430.372101 708.334045,465.208618 
	C703.111267,479.624298 697.429260,493.337402 688.766174,505.811920 
	C685.461731,510.570099 681.721741,515.201721 677.442322,519.076050 
	C660.049866,534.822144 643.135620,551.245178 624.586975,565.524597 
	C605.282654,580.385681 581.684204,586.474731 558.250305,591.960693 
	C549.831787,593.931519 541.301025,596.329529 532.749573,596.657349 
	C506.388245,597.668030 479.995331,599.188354 453.606750,597.057373 
	C436.012238,595.636536 423.760315,585.808411 419.377502,569.303894 
M605.501953,247.987503 
	C591.297913,239.882690 575.914185,235.233200 559.942993,232.158691 
	C540.342712,228.385529 520.940002,223.372406 500.716827,224.050690 
	C486.456482,224.528992 472.185760,224.691574 457.921692,225.071457 
	C455.440155,225.137543 452.923431,225.372635 450.501221,225.893631 
	C443.603180,227.377365 440.439789,230.263580 440.050873,237.332092 
	C439.504211,247.267075 439.979767,257.254364 439.849548,267.217072 
	C439.636414,283.524475 438.899323,299.834320 439.075623,316.135620 
	C439.459106,351.588989 440.366882,387.036346 440.883545,422.488770 
	C441.135986,439.811188 441.134125,457.140533 440.996307,474.464752 
	C440.769775,502.939117 440.296448,531.411499 440.018982,559.885620 
	C439.930420,568.975342 443.541443,573.342407 452.404968,575.269714 
	C454.343048,575.691101 456.352081,575.899353 458.337067,575.972595 
	C467.981232,576.328064 477.626709,576.752197 487.274902,576.856567 
	C493.746887,576.926636 500.228516,576.591248 506.697815,576.274048 
	C512.152283,576.006470 517.594727,575.497131 523.043396,575.106689 
	C528.969543,574.682068 534.927185,574.514465 540.813599,573.776001 
	C545.421875,573.197876 549.974609,572.050049 554.496399,570.930603 
	C577.886047,565.139709 601.009460,558.476746 619.956421,542.653198 
	C631.184448,533.276245 641.421204,522.719116 652.545288,513.209290 
	C669.440063,498.766266 681.369873,481.666046 687.302002,459.795074 
	C690.876099,446.617828 696.208435,433.820221 696.163696,420.046753 
	C696.101562,400.964661 697.186096,381.451660 693.590759,362.936554 
	C690.421265,346.614136 682.243652,331.050629 674.891846,315.820892 
	C668.915894,303.441162 661.634827,291.528717 651.326965,281.944366 
	C637.497498,269.085602 622.714966,257.513672 605.501953,247.987503 
z"/>
<path fill="#1A0404" opacity="1.000000" stroke="none" 
	d="
M114.666222,425.410095 
	C119.644737,447.520020 124.660927,469.788055 136.602295,490.025116 
	C157.772690,525.902649 188.184143,550.004883 227.143295,563.857117 
	C250.768463,572.257202 275.165466,576.750488 300.173645,576.012085 
	C320.432831,575.413879 340.831116,574.180359 359.820892,565.656616 
	C365.486084,563.113770 371.176300,560.539795 373.105408,553.379028 
	C373.770264,555.335693 374.777130,557.635010 374.779968,559.935486 
	C374.785950,564.746704 374.281677,569.559875 373.952087,574.369873 
	C373.483063,581.215149 370.426788,586.234924 364.122162,589.438171 
	C351.257996,595.974182 337.408081,598.143555 323.293915,600.008118 
	C286.019958,604.932129 250.282837,599.379822 215.823257,585.032776 
	C196.471329,576.975769 178.781845,566.093811 163.784424,551.210205 
	C134.824936,522.470520 119.774086,487.044708 114.362747,447.183868 
	C113.412354,440.183075 114.396820,432.919647 114.666222,425.410095 
z"/>
<path fill="#1A0404" opacity="1.000000" stroke="none" 
	d="
M181.298920,409.614258 
	C175.510056,354.701538 207.939026,306.027130 252.175186,289.614655 
	C276.118500,280.731201 300.329193,280.878479 324.634949,288.436188 
	C330.498932,290.259552 336.593231,291.347504 342.442780,293.209747 
	C345.697021,294.245789 348.691925,296.130066 351.747955,297.738037 
	C352.914276,298.351746 353.899017,299.300751 355.010468,300.029999 
	C364.621063,306.335815 369.339203,304.613007 372.412598,293.694366 
	C372.592773,293.054199 372.783020,292.416870 373.085297,291.417236 
	C376.228912,302.743439 374.906067,314.148071 370.173340,325.042328 
	C369.339020,326.962830 365.866760,328.547363 363.479462,328.755066 
	C361.097168,328.962372 358.192566,327.748505 356.127502,326.291992 
	C340.297211,315.126678 321.436401,313.240601 303.362091,309.632660 
	C290.339172,307.033051 276.862488,308.388458 263.789978,311.755798 
	C233.536133,319.548950 211.633179,337.889038 196.098312,364.597046 
	C188.013901,378.496063 183.131393,393.325287 181.298920,409.614258 
z"/>
<path fill="#190708" opacity="1.000000" stroke="none" 
	d="
M141.617706,399.874268 
	C140.833328,382.906708 142.418854,366.360809 149.210114,350.497345 
	C155.166611,336.583710 159.956360,322.098511 169.437378,309.993713 
	C173.208542,305.178925 177.388748,300.663269 181.617294,296.235443 
	C184.368423,293.354706 187.934143,291.203369 190.459488,288.164032 
	C201.218307,275.215363 215.082230,266.145721 230.453461,260.805847 
	C251.728363,253.415070 273.492706,247.763885 296.810303,249.430939 
	C312.914917,250.582275 328.538818,252.583130 343.665771,258.041046 
	C348.014221,259.609985 352.193573,261.771088 356.198578,264.094788 
	C357.431274,264.809998 357.828491,266.965271 358.608276,268.461121 
	C357.046844,269.161133 355.363708,270.642395 353.945679,270.421570 
	C348.707611,269.605835 343.440704,268.594452 338.394836,266.993896 
	C321.127502,261.516724 303.614746,257.973816 285.381897,258.827423 
	C263.994873,259.828735 243.283112,264.419128 224.209900,273.859711 
	C208.430817,281.669800 195.912964,294.306763 184.229858,307.406219 
	C168.143707,325.442474 158.757843,346.931946 152.572052,370.705017 
	C149.716782,377.536469 147.168167,383.786377 144.784241,390.098480 
	C143.575424,393.299164 142.663727,396.612091 141.617706,399.874268 
z"/>
<path fill="#190708" opacity="1.000000" stroke="none" 
	d="
M151.831970,418.058167 
	C154.984940,446.492950 164.670029,472.307281 183.645187,493.992767 
	C197.907608,510.292450 216.125977,521.251343 235.784058,529.904297 
	C239.883347,531.708740 244.116455,533.209229 248.754333,535.322937 
	C250.616623,536.626648 251.920395,537.717224 253.422043,538.248840 
	C277.024750,546.604675 301.159241,547.750000 325.544037,542.765015 
	C335.444611,540.741150 345.123260,537.631897 354.902893,535.016479 
	C353.207520,540.885742 348.253693,543.595337 343.236298,544.897095 
	C332.171539,547.767578 320.941956,550.287842 309.627747,551.852966 
	C285.433502,555.199707 261.907990,549.932068 239.369949,542.406799 
	C214.468689,534.092468 192.653534,519.581909 175.624329,499.245728 
	C168.415634,490.637177 163.199158,480.360352 156.988800,470.100464 
	C155.079712,459.809906 152.675690,450.324188 151.626404,440.690918 
	C150.815125,433.242493 151.700760,425.609253 151.831970,418.058167 
z"/>
<path fill="#1D262B" opacity="1.000000" stroke="none" 
	d="
M151.890717,417.612122 
	C151.700760,425.609253 150.815125,433.242493 151.626404,440.690918 
	C152.675690,450.324188 155.079712,459.809906 156.902832,469.765564 
	C153.903534,463.236420 149.556931,456.557495 148.174561,449.312958 
	C145.111816,433.262054 143.537567,416.927124 141.487000,400.291138 
	C142.663727,396.612091 143.575424,393.299164 144.784241,390.098480 
	C147.168167,383.786377 149.716782,377.536469 152.491638,371.102966 
	C152.185822,379.216309 151.261902,387.480591 151.083832,395.760895 
	C150.930603,402.886475 151.628128,410.030334 151.890717,417.612122 
z"/>
<path fill="#1D252A" opacity="1.000000" stroke="none" 
	d="
M355.042358,534.625488 
	C345.123260,537.631897 335.444611,540.741150 325.544037,542.765015 
	C301.159241,547.750000 277.024750,546.604675 253.422043,538.248840 
	C251.920395,537.717224 250.616623,536.626648 249.086212,535.483032 
	C263.542328,537.355164 278.069672,540.265991 292.739349,541.546692 
	C312.172638,543.243347 330.596558,538.343750 348.120361,530.008606 
	C354.011780,527.206360 354.987854,527.756531 355.042358,534.625488 
z"/>
<path fill="#FF8270" opacity="1.000000" stroke="none" 
	d="
M605.817383,248.174408 
	C622.714966,257.513672 637.497498,269.085602 651.326965,281.944366 
	C661.634827,291.528717 668.915894,303.441162 674.891846,315.820892 
	C682.243652,331.050629 690.421265,346.614136 693.590759,362.936554 
	C697.186096,381.451660 696.101562,400.964661 696.163696,420.046753 
	C696.208435,433.820221 690.876099,446.617828 687.302002,459.795074 
	C681.369873,481.666046 669.440063,498.766266 652.545288,513.209290 
	C641.421204,522.719116 631.184448,533.276245 619.956421,542.653198 
	C601.009460,558.476746 577.886047,565.139709 554.496399,570.930603 
	C549.974609,572.050049 545.421875,573.197876 540.813599,573.776001 
	C534.927185,574.514465 528.969543,574.682068 523.043396,575.106689 
	C517.594727,575.497131 512.152283,576.006470 506.697815,576.274048 
	C500.228516,576.591248 493.746887,576.926636 487.274902,576.856567 
	C477.626709,576.752197 467.981232,576.328064 458.337067,575.972595 
	C456.352081,575.899353 454.343048,575.691101 452.404968,575.269714 
	C443.541443,573.342407 439.930420,568.975342 440.018982,559.885620 
	C440.296448,531.411499 440.769775,502.939117 440.996307,474.464752 
	C441.134125,457.140533 441.135986,439.811188 440.883545,422.488770 
	C440.366882,387.036346 439.459106,351.588989 439.075623,316.135620 
	C438.899323,299.834320 439.636414,283.524475 439.849548,267.217072 
	C439.979767,257.254364 439.504211,247.267075 440.050873,237.332092 
	C440.439789,230.263580 443.603180,227.377365 450.501221,225.893631 
	C452.923431,225.372635 455.440155,225.137543 457.921692,225.071457 
	C472.185760,224.691574 486.456482,224.528992 500.716827,224.050690 
	C520.940002,223.372406 540.342712,228.385529 559.942993,232.158691 
	C575.914185,235.233200 591.297913,239.882690 605.817383,248.174408 
M465.778381,332.903748 
	C465.862213,355.899689 466.081512,378.896149 465.987091,401.891357 
	C465.911224,420.371063 465.170654,438.850128 465.233978,457.327759 
	C465.333191,486.277985 465.934265,515.226257 466.152222,544.176636 
	C466.200623,550.611145 469.163971,555.047485 475.279358,554.872925 
	C495.569244,554.293762 516.249084,555.531006 536.044312,551.977234 
	C575.096802,544.966309 610.479919,529.587646 637.339478,498.343536 
	C649.018921,484.757599 658.369202,469.815979 664.996399,453.533173 
	C672.763489,434.449493 676.233154,414.141327 674.910095,393.342072 
	C673.954590,378.321289 671.994934,363.341614 665.540588,349.615479 
	C659.954651,337.736206 653.487793,326.226013 646.737366,314.955780 
	C642.401123,307.716095 637.511230,300.570160 631.703064,294.497955 
	C618.360046,280.548309 601.066895,272.199280 583.990112,264.027771 
	C567.867371,256.312775 550.385498,252.432541 532.772034,249.478500 
	C525.907166,248.327133 519.013855,246.259979 512.160400,246.365005 
	C500.045685,246.550674 487.950165,248.062744 475.849487,249.054993 
	C469.315277,249.590790 465.956329,251.914215 465.530853,257.778839 
	C464.810272,267.710754 464.616760,277.703156 464.706268,287.665588 
	C464.801910,298.303467 465.549438,308.934052 465.873322,319.572052 
	C465.999146,323.704620 465.744598,327.848755 465.778381,332.903748 
z"/>
<path fill="#EA4E4E" opacity="1.000000" stroke="none" 
	d="
M465.720886,332.445679 
	C465.744598,327.848755 465.999146,323.704620 465.873322,319.572052 
	C465.549438,308.934052 464.801910,298.303467 464.706268,287.665588 
	C464.616760,277.703156 464.810272,267.710754 465.530853,257.778839 
	C465.956329,251.914215 469.315277,249.590790 475.849487,249.054993 
	C487.950165,248.062744 500.045685,246.550674 512.160400,246.365005 
	C519.013855,246.259979 525.907166,248.327133 532.772034,249.478500 
	C550.385498,252.432541 567.867371,256.312775 583.990112,264.027771 
	C601.066895,272.199280 618.360046,280.548309 631.703064,294.497955 
	C637.511230,300.570160 642.401123,307.716095 646.737366,314.955780 
	C653.487793,326.226013 659.954651,337.736206 665.540588,349.615479 
	C671.994934,363.341614 673.954590,378.321289 674.910095,393.342072 
	C676.233154,414.141327 672.763489,434.449493 664.996399,453.533173 
	C658.369202,469.815979 649.018921,484.757599 637.339478,498.343536 
	C610.479919,529.587646 575.096802,544.966309 536.044312,551.977234 
	C516.249084,555.531006 495.569244,554.293762 475.279358,554.872925 
	C469.163971,555.047485 466.200623,550.611145 466.152222,544.176636 
	C465.934265,515.226257 465.333191,486.277985 465.233978,457.327759 
	C465.170654,438.850128 465.911224,420.371063 465.987091,401.891357 
	C466.081512,378.896149 465.862213,355.899689 465.720886,332.445679 
M476.011627,381.541382 
	C476.003632,399.165405 475.909332,416.790039 476.028412,434.413208 
	C476.078949,441.892120 476.846191,449.369110 476.816071,456.845062 
	C476.751099,472.991302 476.214447,489.136169 476.199127,505.281921 
	C476.189972,514.929688 476.631378,524.587769 477.184387,534.223206 
	C477.716797,543.499695 481.008881,545.883301 490.084564,544.760681 
	C494.522339,544.211792 499.041962,544.352478 503.519226,544.090027 
	C515.104187,543.411072 526.804810,543.487549 538.244812,541.804749 
	C562.027222,538.306458 583.813843,528.946594 603.363403,515.203674 
	C616.435791,506.014099 626.996582,494.032928 636.854004,481.224487 
	C653.238464,459.935028 664.104736,436.821838 666.567200,409.883972 
	C668.292419,391.011536 664.451172,373.015656 657.661255,355.745026 
	C653.479614,345.108643 647.615662,335.075348 641.921936,325.105408 
	C633.374084,310.137939 622.657410,297.147308 606.508484,289.633179 
	C604.596191,288.743378 603.125793,286.949158 601.281921,285.859558 
	C592.459839,280.646393 584.118225,273.922455 574.601196,270.737366 
	C557.961182,265.168427 540.987915,260.431274 523.270447,258.467316 
	C509.941864,256.989838 496.940002,255.108429 483.718445,258.851471 
	C479.498718,260.046082 476.701447,261.854218 476.457367,266.380493 
	C475.839630,277.836395 474.747986,289.304596 474.892181,300.754669 
	C475.095367,316.884583 476.531647,332.996277 476.882416,349.127930 
	C477.110016,359.595673 476.342712,370.085083 476.011627,381.541382 
z"/>
<path fill="#FF8270" opacity="1.000000" stroke="none" 
	d="
M476.016388,381.053101 
	C476.342712,370.085083 477.110016,359.595673 476.882416,349.127930 
	C476.531647,332.996277 475.095367,316.884583 474.892181,300.754669 
	C474.747986,289.304596 475.839630,277.836395 476.457367,266.380493 
	C476.701447,261.854218 479.498718,260.046082 483.718445,258.851471 
	C496.940002,255.108429 509.941864,256.989838 523.270447,258.467316 
	C540.987915,260.431274 557.961182,265.168427 574.601196,270.737366 
	C584.118225,273.922455 592.459839,280.646393 601.281921,285.859558 
	C603.125793,286.949158 604.596191,288.743378 606.508484,289.633179 
	C622.657410,297.147308 633.374084,310.137939 641.921936,325.105408 
	C647.615662,335.075348 653.479614,345.108643 657.661255,355.745026 
	C664.451172,373.015656 668.292419,391.011536 666.567200,409.883972 
	C664.104736,436.821838 653.238464,459.935028 636.854004,481.224487 
	C626.996582,494.032928 616.435791,506.014099 603.363403,515.203674 
	C583.813843,528.946594 562.027222,538.306458 538.244812,541.804749 
	C526.804810,543.487549 515.104187,543.411072 503.519226,544.090027 
	C499.041962,544.352478 494.522339,544.211792 490.084564,544.760681 
	C481.008881,545.883301 477.716797,543.499695 477.184387,534.223206 
	C476.631378,524.587769 476.189972,514.929688 476.199127,505.281921 
	C476.214447,489.136169 476.751099,472.991302 476.816071,456.845062 
	C476.846191,449.369110 476.078949,441.892120 476.028412,434.413208 
	C475.909332,416.790039 476.003632,399.165405 476.016388,381.053101 
M498.897552,327.805939 
	C498.930786,359.598969 499.025116,391.392181 498.952972,423.184967 
	C498.935638,430.832367 498.069122,438.480530 498.120422,446.124817 
	C498.196320,457.439178 498.598450,468.757233 499.132111,480.060974 
	C499.634308,490.698212 500.487213,501.318878 501.185150,511.946899 
	C501.434875,515.749329 503.285400,518.394348 507.144012,518.838684 
	C514.211304,519.652466 521.573669,521.681274 528.360779,520.532227 
	C570.035461,513.476807 604.021729,494.049561 626.479126,457.042847 
	C634.631409,443.608948 637.375061,428.674469 639.576599,413.378937 
	C643.291870,387.565521 636.159607,364.147247 624.053711,342.124908 
	C618.995850,332.923859 611.751953,324.608978 604.274658,317.115936 
	C586.065063,298.868011 564.363770,286.482056 538.436646,283.186768 
	C528.255493,281.892731 517.846008,282.290955 507.537476,282.159424 
	C504.004517,282.114349 500.519592,283.427521 500.303192,287.572083 
	C499.619720,300.660309 499.285187,313.766785 498.897552,327.805939 
z"/>
<path fill="#E84D4D" opacity="1.000000" stroke="none" 
	d="
M498.856628,327.336060 
	C499.285187,313.766785 499.619720,300.660309 500.303192,287.572083 
	C500.519592,283.427521 504.004517,282.114349 507.537476,282.159424 
	C517.846008,282.290955 528.255493,281.892731 538.436646,283.186768 
	C564.363770,286.482056 586.065063,298.868011 604.274658,317.115936 
	C611.751953,324.608978 618.995850,332.923859 624.053711,342.124908 
	C636.159607,364.147247 643.291870,387.565521 639.576599,413.378937 
	C637.375061,428.674469 634.631409,443.608948 626.479126,457.042847 
	C604.021729,494.049561 570.035461,513.476807 528.360779,520.532227 
	C521.573669,521.681274 514.211304,519.652466 507.144012,518.838684 
	C503.285400,518.394348 501.434875,515.749329 501.185150,511.946899 
	C500.487213,501.318878 499.634308,490.698212 499.132111,480.060974 
	C498.598450,468.757233 498.196320,457.439178 498.120422,446.124817 
	C498.069122,438.480530 498.935638,430.832367 498.952972,423.184967 
	C499.025116,391.392181 498.930786,359.598969 498.856628,327.336060 
M531.765991,498.301636 
	C553.410156,494.528595 571.721741,484.024200 588.353455,470.185333 
	C601.218689,459.480560 610.253540,446.076355 614.840393,430.027924 
	C622.512207,403.185333 620.102295,376.783783 605.609802,353.111572 
	C589.947815,327.529053 567.546204,309.630341 536.805786,304.564056 
	C531.347778,303.664490 525.800110,303.309784 520.009766,302.672180 
	C520.009766,310.954285 520.210999,318.093079 519.975708,325.217438 
	C518.832581,359.828186 522.990906,394.355682 520.365662,429.074219 
	C518.704651,451.041260 520.834839,473.296295 521.318115,495.420990 
	C521.348755,496.824036 521.843262,498.217010 522.199524,500.003815 
	C525.446350,499.460266 528.206726,498.998138 531.765991,498.301636 
z"/>
<path fill="#1F2125" opacity="1.000000" stroke="none" 
	d="
M531.366516,498.418823 
	C528.206726,498.998138 525.446350,499.460266 522.199524,500.003815 
	C521.843262,498.217010 521.348755,496.824036 521.318115,495.420990 
	C520.834839,473.296295 518.704651,451.041260 520.365662,429.074219 
	C522.990906,394.355682 518.832581,359.828186 519.975708,325.217438 
	C520.210999,318.093079 520.009766,310.954285 520.009766,302.672180 
	C525.800110,303.309784 531.347778,303.664490 536.805786,304.564056 
	C567.546204,309.630341 589.947815,327.529053 605.609802,353.111572 
	C620.102295,376.783783 622.512207,403.185333 614.840393,430.027924 
	C610.253540,446.076355 601.218689,459.480560 588.353455,470.185333 
	C571.721741,484.024200 553.410156,494.528595 531.366516,498.418823 
z"/>
</svg>