<svg version="1.1" id="Layer_1" xmlns="http://www.w3.org/2000/svg" xmlns:xlink="http://www.w3.org/1999/xlink" x="0px" y="0px"
	 width="100%" viewBox="0 0 800 800" enable-background="new 0 0 800 800" xml:space="preserve">
<path fill="#161616" opacity="1.000000" stroke="none" 
	d="
M801.000000,288.000000 
	C801.000000,459.333344 801.000000,630.166687 801.000000,801.000000 
	C534.333313,801.000000 267.666656,801.000000 1.000000,801.000000 
	C1.000000,534.333313 1.000000,267.666656 1.000000,1.000000 
	C267.666656,1.000000 534.333313,1.000000 801.000000,1.000000 
	C801.000000,96.500000 801.000000,192.000000 801.000000,288.000000 
M235.940277,87.494598 
	C62.531891,187.566055 4.327776,404.698395 99.301895,575.660950 
	C198.578079,754.367554 418.279358,812.153015 589.220886,717.555908 
	C770.758240,617.094910 825.400330,396.252777 731.933105,227.110657 
	C631.985657,46.241745 408.822571,-10.671938 235.940277,87.494598 
z"/>
<path fill="#FA816E" opacity="1.000000" stroke="none" 
	d="
M236.252411,87.301949 
	C408.822571,-10.671938 631.985657,46.241745 731.933105,227.110657 
	C825.400330,396.252777 770.758240,617.094910 589.220886,717.555908 
	C418.279358,812.153015 198.578079,754.367554 99.301895,575.660950 
	C4.327776,404.698395 62.531891,187.566055 236.252411,87.301949 
M223.859070,688.696533 
	C273.885468,721.462341 328.527435,740.761475 388.288544,745.329102 
	C432.994232,748.746033 476.795654,744.109314 519.512390,730.513000 
	C582.003357,710.622742 634.755066,675.738220 677.421387,625.945923 
	C730.307190,564.227356 758.016357,492.456909 760.642090,411.327698 
	C762.819580,344.047333 746.504333,281.186920 711.756958,223.472290 
	C675.912842,163.936035 626.503662,118.894493 563.736450,88.995193 
	C497.017120,57.213264 426.942810,48.195717 354.285339,61.053661 
	C282.400482,73.774879 220.624039,106.526375 169.473602,158.483795 
	C114.994232,213.822678 82.709023,280.335968 72.718056,357.464325 
	C67.046127,401.250580 69.464005,444.675781 80.789040,487.325165 
	C103.256302,571.935486 151.225723,638.701050 223.859070,688.696533 
z"/>
<path fill="#161616" opacity="1.000000" stroke="none" 
	d="
M223.560791,688.491577 
	C151.225723,638.701050 103.256302,571.935486 80.789040,487.325165 
	C69.464005,444.675781 67.046127,401.250580 72.718056,357.464325 
	C82.709023,280.335968 114.994232,213.822678 169.473602,158.483795 
	C220.624039,106.526375 282.400482,73.774879 354.285339,61.053661 
	C426.942810,48.195717 497.017120,57.213264 563.736450,88.995193 
	C626.503662,118.894493 675.912842,163.936035 711.756958,223.472290 
	C746.504333,281.186920 762.819580,344.047333 760.642090,411.327698 
	C758.016357,492.456909 730.307190,564.227356 677.421387,625.945923 
	C634.755066,675.738220 582.003357,710.622742 519.512390,730.513000 
	C476.795654,744.109314 432.994232,748.746033 388.288544,745.329102 
	C328.527435,740.761475 273.885468,721.462341 223.560791,688.491577 
M372.875671,292.107819 
	C373.251862,282.650970 374.045563,273.186310 373.868500,263.739807 
	C373.733490,256.538513 372.419586,248.891556 366.272003,244.343597 
	C359.391449,239.253387 352.038818,233.962021 344.044769,231.370514 
	C318.128937,222.969101 291.089630,222.129913 264.517731,225.975235 
	C245.240784,228.764908 226.360382,235.082291 207.689224,241.037125 
	C190.882538,246.397278 175.256943,254.721741 164.336075,269.192108 
	C153.622589,283.387726 143.358948,297.977295 133.779312,312.957611 
	C125.566452,325.800598 120.868591,340.305817 117.778389,355.234161 
	C112.731552,379.614746 113.189545,404.202393 114.815948,429.550415 
	C114.542938,431.502258 113.980904,433.462952 114.040390,435.404602 
	C114.896706,463.352814 122.193947,489.612946 135.761948,513.980042 
	C147.047867,534.248840 161.707642,551.827271 180.702438,565.403320 
	C215.617188,590.357666 255.168701,601.179077 297.539734,601.730225 
	C311.890198,601.916931 326.400330,599.738525 340.607178,597.299194 
	C348.987396,595.860352 357.033630,592.077759 365.009613,588.810974 
	C371.208069,586.272217 373.517853,580.698486 373.955505,574.325623 
	C374.342377,568.691956 374.711914,563.050598 374.806183,557.407898 
	C374.830414,555.956787 373.788147,554.487854 373.209290,552.199158 
	C374.582062,539.756958 375.490906,527.305298 372.478912,514.970215 
	C370.307098,506.075867 365.569550,503.887726 357.031036,507.585815 
	C335.608276,516.864258 313.265930,521.064880 289.915863,519.969910 
	C261.147980,518.620789 236.597702,508.372437 215.596695,488.107727 
	C191.246307,464.611145 180.583389,436.228058 181.469666,402.702759 
	C181.921295,402.033264 182.680878,401.406097 182.779480,400.688110 
	C185.203491,383.040314 193.292740,367.881561 203.284393,353.522980 
	C227.441391,318.808044 269.431488,302.409821 310.502167,310.701569 
	C321.417664,312.905273 332.249481,315.767242 342.855225,319.155060 
	C347.932922,320.776978 352.386688,324.343628 357.134247,327.009552 
	C364.733368,331.276703 370.011383,329.458557 371.824310,321.178040 
	C373.415192,313.911896 374.114349,306.426392 374.786682,298.999664 
	C374.962433,297.057831 373.571808,294.974152 372.875671,292.107819 
M667.840515,528.343140 
	C674.774719,520.948303 682.456848,514.109863 688.468018,506.028473 
	C697.507507,493.876068 703.012939,479.999481 708.210449,465.557373 
	C720.922974,430.233368 719.974182,394.456116 714.859802,358.561371 
	C711.908569,337.848267 701.374817,319.290527 691.191162,301.148529 
	C685.516663,291.039581 679.444763,280.663727 671.470154,272.422668 
	C640.833252,240.762192 605.071350,218.092712 560.601074,210.283356 
	C534.762024,205.745819 509.200226,200.740845 482.821564,203.870392 
	C479.039917,204.319031 475.207275,204.527802 471.398987,204.519058 
	C464.914551,204.504150 458.407349,203.796692 451.951111,204.145645 
	C434.687775,205.078659 422.542023,215.169174 419.322571,231.242691 
	C418.317688,236.259827 418.042419,241.498962 418.069916,246.633072 
	C418.159058,263.283356 418.839813,279.933685 418.748383,296.581024 
	C418.592102,325.047485 417.658417,353.512970 417.759705,381.976349 
	C417.824280,400.117157 419.759735,418.251923 419.804382,436.392029 
	C419.883545,468.536865 419.156494,500.683655 418.778839,532.829773 
	C418.673187,541.824158 418.434479,550.821594 418.561829,559.813293 
	C418.865784,581.279236 432.176392,595.344360 453.622345,597.053040 
	C480.002289,599.154724 506.388916,597.700256 532.742126,596.658447 
	C541.292053,596.320435 549.788269,593.811218 558.241455,591.982422 
	C593.058655,584.449951 624.793640,570.841980 650.331116,545.036316 
	C655.835449,539.474121 661.655518,534.224304 667.840515,528.343140 
z"/>
<path fill="#00ADCF" opacity="1.000000" stroke="none" 
	d="
M115.291962,428.835602 
	C113.189545,404.202393 112.731552,379.614746 117.778389,355.234161 
	C120.868591,340.305817 125.566452,325.800598 133.779312,312.957611 
	C143.358948,297.977295 153.622589,283.387726 164.336075,269.192108 
	C175.256943,254.721741 190.882538,246.397278 207.689224,241.037125 
	C226.360382,235.082291 245.240784,228.764908 264.517731,225.975235 
	C291.089630,222.129913 318.128937,222.969101 344.044769,231.370514 
	C352.038818,233.962021 359.391449,239.253387 366.272003,244.343597 
	C372.419586,248.891556 373.733490,256.538513 373.868500,263.739807 
	C374.045563,273.186310 373.251862,282.650970 372.692932,292.831421 
	C369.330261,304.557953 364.659302,306.320435 355.127625,300.106842 
	C354.291107,299.561523 353.539581,298.854645 352.650482,298.426544 
	C348.512238,296.433685 344.461395,294.163239 340.147095,292.657257 
	C335.138062,290.908783 329.927979,289.664703 324.732025,288.539124 
	C315.642914,286.570221 306.560028,283.742828 297.365845,283.232361 
	C256.879547,280.984406 224.873749,296.878906 201.508835,330.013794 
	C186.068954,351.909821 179.700211,376.431030 180.790375,403.042694 
	C180.583389,436.228058 191.246307,464.611145 215.596695,488.107727 
	C236.597702,508.372437 261.147980,518.620789 289.915863,519.969910 
	C313.265930,521.064880 335.608276,516.864258 357.031036,507.585815 
	C365.569550,503.887726 370.307098,506.075867 372.478912,514.970215 
	C375.490906,527.305298 374.582062,539.756958 373.100006,552.953491 
	C370.104126,556.959473 367.795776,561.277283 364.202515,563.226196 
	C357.990143,566.595703 351.169769,569.367615 344.273285,570.863708 
	C310.567169,578.176025 276.813354,578.159058 243.466797,568.871094 
	C180.526001,551.340088 137.459000,513.164307 120.240120,448.650024 
	C118.484840,442.073486 116.936401,435.441742 115.291962,428.835602 
M355.162750,534.235168 
	C355.021484,527.753052 354.034637,527.186279 348.143066,529.995300 
	C330.939911,538.197449 312.825684,543.138123 293.759247,541.617981 
	C278.755859,540.421753 263.900879,537.363892 248.324295,534.791626 
	C227.974777,527.442871 208.946915,517.748047 192.882874,502.976746 
	C176.541550,487.950562 164.494064,470.093811 158.364838,448.601013 
	C155.952896,440.143341 154.160736,431.508911 152.221497,422.041748 
	C151.848602,411.777954 151.179626,401.513336 151.207687,391.250641 
	C151.226151,384.490601 152.248474,377.733307 152.997177,370.179230 
	C158.668182,347.101898 168.007553,325.783875 183.877594,307.817200 
	C195.607666,294.537415 208.248444,281.790894 224.162018,273.892975 
	C243.370941,264.359619 264.243683,259.768341 285.804413,258.814880 
	C304.041473,258.008392 321.526276,261.658630 338.785553,267.104767 
	C343.674988,268.647614 348.772827,269.639862 353.846619,270.418488 
	C355.286346,270.639465 356.978516,269.215668 358.554901,268.546173 
	C357.819000,267.040894 357.478241,264.901123 356.272491,264.150177 
	C352.767151,261.967041 349.040833,260.007843 345.178833,258.549530 
	C321.533417,249.620926 296.940338,246.883057 272.101562,250.349792 
	C257.721191,252.356888 243.301987,256.062927 229.700470,261.145691 
	C214.562927,266.802429 200.876480,275.612457 190.232086,288.393097 
	C187.809402,291.302032 184.376984,293.347565 181.751602,296.115204 
	C177.425201,300.676086 173.104752,305.290619 169.266541,310.257202 
	C159.562180,322.814423 154.608841,337.757233 148.602432,352.189789 
	C142.441864,366.992706 140.916077,382.376160 141.387451,398.869995 
	C143.755417,416.438965 145.715683,434.078125 148.720413,451.537506 
	C149.723633,457.366791 153.398148,462.736359 156.011307,468.983337 
	C162.664658,479.320160 168.341980,490.474335 176.172668,499.825195 
	C192.946091,519.854858 214.553177,534.081665 239.066132,542.307678 
	C261.883392,549.964600 285.703308,555.231079 310.196930,551.819946 
	C321.328735,550.269653 332.375092,547.754150 343.252838,544.889099 
	C348.250763,543.572632 353.219788,540.902283 355.162750,534.235168 
z"/>
<path fill="#E84D4D" opacity="1.000000" stroke="none" 
	d="
M667.585327,528.586914 
	C661.655518,534.224304 655.835449,539.474121 650.331116,545.036316 
	C624.793640,570.841980 593.058655,584.449951 558.241455,591.982422 
	C549.788269,593.811218 541.292053,596.320435 532.742126,596.658447 
	C506.388916,597.700256 480.002289,599.154724 453.622345,597.053040 
	C432.176392,595.344360 418.865784,581.279236 418.561829,559.813293 
	C418.434479,550.821594 418.673187,541.824158 418.778839,532.829773 
	C419.156494,500.683655 419.883545,468.536865 419.804382,436.392029 
	C419.759735,418.251923 417.824280,400.117157 417.759705,381.976349 
	C417.658417,353.512970 418.592102,325.047485 418.748383,296.581024 
	C418.839813,279.933685 418.159058,263.283356 418.069916,246.633072 
	C418.042419,241.498962 418.317688,236.259827 419.322571,231.242691 
	C422.542023,215.169174 434.687775,205.078659 451.951111,204.145645 
	C458.407349,203.796692 464.914551,204.504150 471.398987,204.519058 
	C475.207275,204.527802 479.039917,204.319031 482.821564,203.870392 
	C509.200226,200.740845 534.762024,205.745819 560.601074,210.283356 
	C605.071350,218.092712 640.833252,240.762192 671.470154,272.422668 
	C679.444763,280.663727 685.516663,291.039581 691.191162,301.148529 
	C701.374817,319.290527 711.908569,337.848267 714.859802,358.561371 
	C719.974182,394.456116 720.922974,430.233368 708.210449,465.557373 
	C703.012939,479.999481 697.507507,493.876068 688.468018,506.028473 
	C682.456848,514.109863 674.774719,520.948303 667.585327,528.586914 
M658.945496,507.457611 
	C662.045410,504.207306 665.523743,501.237183 668.175598,497.655182 
	C676.818481,485.980713 682.457825,473.034119 687.680115,459.304535 
	C698.854553,429.926117 697.196655,400.125275 695.402771,370.071075 
	C694.584900,356.370178 688.213135,344.192383 682.769104,331.845032 
	C672.448059,308.435913 659.298523,287.319061 639.021057,270.792572 
	C612.695374,249.336578 583.536438,235.060593 549.798401,229.929047 
	C533.354431,227.427917 517.154846,223.431656 500.331543,224.048508 
	C486.407104,224.559036 472.469116,224.693466 458.538757,225.056473 
	C456.053528,225.121246 453.531860,225.268372 451.103394,225.756989 
	C443.568542,227.273041 440.453156,230.051590 440.011017,237.708939 
	C439.437561,247.640228 439.975739,257.631073 439.851501,267.593994 
	C439.641968,284.400452 439.177643,301.204102 439.026398,318.010803 
	C438.882477,334.001831 438.849976,349.997131 439.047974,365.987061 
	C439.249908,382.296570 439.971375,398.600006 440.147003,414.909515 
	C440.476898,445.543182 440.705078,476.179260 440.725403,506.814514 
	C440.737579,525.125427 440.125183,543.436401 440.098907,561.747864 
	C440.088409,569.063965 444.126373,573.459595 451.356171,574.948547 
	C454.271851,575.549011 457.278778,575.844177 460.257477,575.975159 
	C469.066101,576.362183 477.879822,576.753357 486.694550,576.841919 
	C493.333862,576.908569 499.982758,576.612732 506.618164,576.288574 
	C511.906647,576.030212 517.181213,575.485291 522.461914,575.067810 
	C529.039795,574.547852 535.639465,574.213440 542.187500,573.440857 
	C546.304382,572.955139 550.375183,571.939941 554.412598,570.943481 
	C577.806519,565.169983 600.968445,558.559021 619.878662,542.697388 
	C633.126526,531.585205 645.613342,519.565735 658.945496,507.457611 
z"/>
<path fill="#1A0404" opacity="1.000000" stroke="none" 
	d="
M115.053955,429.192993 
	C116.936401,435.441742 118.484840,442.073486 120.240120,448.650024 
	C137.459000,513.164307 180.526001,551.340088 243.466797,568.871094 
	C276.813354,578.159058 310.567169,578.176025 344.273285,570.863708 
	C351.169769,569.367615 357.990143,566.595703 364.202515,563.226196 
	C367.795776,561.277283 370.104126,556.959473 373.113281,553.367432 
	C373.788147,554.487854 374.830414,555.956787 374.806183,557.407898 
	C374.711914,563.050598 374.342377,568.691956 373.955505,574.325623 
	C373.517853,580.698486 371.208069,586.272217 365.009613,588.810974 
	C357.033630,592.077759 348.987396,595.860352 340.607178,597.299194 
	C326.400330,599.738525 311.890198,601.916931 297.539734,601.730225 
	C255.168701,601.179077 215.617188,590.357666 180.702438,565.403320 
	C161.707642,551.827271 147.047867,534.248840 135.761948,513.980042 
	C122.193947,489.612946 114.896706,463.352814 114.040390,435.404602 
	C113.980904,433.462952 114.542938,431.502258 115.053955,429.192993 
z"/>
<path fill="#1A0404" opacity="1.000000" stroke="none" 
	d="
M181.130020,402.872742 
	C179.700211,376.431030 186.068954,351.909821 201.508835,330.013794 
	C224.873749,296.878906 256.879547,280.984406 297.365845,283.232361 
	C306.560028,283.742828 315.642914,286.570221 324.732025,288.539124 
	C329.927979,289.664703 335.138062,290.908783 340.147095,292.657257 
	C344.461395,294.163239 348.512238,296.433685 352.650482,298.426544 
	C353.539581,298.854645 354.291107,299.561523 355.127625,300.106842 
	C364.659302,306.320435 369.330261,304.557953 372.705383,293.255310 
	C373.571808,294.974152 374.962433,297.057831 374.786682,298.999664 
	C374.114349,306.426392 373.415192,313.911896 371.824310,321.178040 
	C370.011383,329.458557 364.733368,331.276703 357.134247,327.009552 
	C352.386688,324.343628 347.932922,320.776978 342.855225,319.155060 
	C332.249481,315.767242 321.417664,312.905273 310.502167,310.701569 
	C269.431488,302.409821 227.441391,318.808044 203.284393,353.522980 
	C193.292740,367.881561 185.203491,383.040314 182.779480,400.688110 
	C182.680878,401.406097 181.921295,402.033264 181.130020,402.872742 
z"/>
<path fill="#190708" opacity="1.000000" stroke="none" 
	d="
M141.661255,398.160614 
	C140.916077,382.376160 142.441864,366.992706 148.602432,352.189789 
	C154.608841,337.757233 159.562180,322.814423 169.266541,310.257202 
	C173.104752,305.290619 177.425201,300.676086 181.751602,296.115204 
	C184.376984,293.347565 187.809402,291.302032 190.232086,288.393097 
	C200.876480,275.612457 214.562927,266.802429 229.700470,261.145691 
	C243.301987,256.062927 257.721191,252.356888 272.101562,250.349792 
	C296.940338,246.883057 321.533417,249.620926 345.178833,258.549530 
	C349.040833,260.007843 352.767151,261.967041 356.272491,264.150177 
	C357.478241,264.901123 357.819000,267.040894 358.554901,268.546173 
	C356.978516,269.215668 355.286346,270.639465 353.846619,270.418488 
	C348.772827,269.639862 343.674988,268.647614 338.785553,267.104767 
	C321.526276,261.658630 304.041473,258.008392 285.804413,258.814880 
	C264.243683,259.768341 243.370941,264.359619 224.162018,273.892975 
	C208.248444,281.790894 195.607666,294.537415 183.877594,307.817200 
	C168.007553,325.783875 158.668182,347.101898 152.617004,370.736816 
	C151.183167,373.312714 149.908295,375.248322 149.116547,377.364685 
	C146.536453,384.261108 144.132782,391.223572 141.661255,398.160614 
z"/>
<path fill="#190708" opacity="1.000000" stroke="none" 
	d="
M152.086334,422.954987 
	C154.160736,431.508911 155.952896,440.143341 158.364838,448.601013 
	C164.494064,470.093811 176.541550,487.950562 192.882874,502.976746 
	C208.946915,517.748047 227.974777,527.442871 248.793259,535.271729 
	C250.803726,536.648682 252.250046,537.811584 253.901093,538.402222 
	C276.331238,546.425781 299.380096,547.262085 322.570496,543.197815 
	C333.483124,541.285278 344.119049,537.793640 354.880341,535.017578 
	C353.219788,540.902283 348.250763,543.572632 343.252838,544.889099 
	C332.375092,547.754150 321.328735,550.269653 310.196930,551.819946 
	C285.703308,555.231079 261.883392,549.964600 239.066132,542.307678 
	C214.553177,534.081665 192.946091,519.854858 176.172668,499.825195 
	C168.341980,490.474335 162.664658,479.320160 155.962265,468.213440 
	C155.763809,465.965210 155.707504,464.470367 155.449432,463.011261 
	C154.069534,455.210114 152.171005,447.464600 151.386826,439.606537 
	C150.840683,434.133820 151.799698,428.510834 152.086334,422.954987 
z"/>
<path fill="#151B1D" opacity="1.000000" stroke="none" 
	d="
M152.153915,422.498352 
	C151.799698,428.510834 150.840683,434.133820 151.386826,439.606537 
	C152.171005,447.464600 154.069534,455.210114 155.449432,463.011261 
	C155.707504,464.470367 155.763809,465.965210 155.882385,467.879822 
	C153.398148,462.736359 149.723633,457.366791 148.720413,451.537506 
	C145.715683,434.078125 143.755417,416.438965 141.524353,398.515320 
	C144.132782,391.223572 146.536453,384.261108 149.116547,377.364685 
	C149.908295,375.248322 151.183167,373.312714 152.529068,371.134583 
	C152.248474,377.733307 151.226151,384.490601 151.207687,391.250641 
	C151.179626,401.513336 151.848602,411.777954 152.153915,422.498352 
z"/>
<path fill="#151B1C" opacity="1.000000" stroke="none" 
	d="
M355.021545,534.626343 
	C344.119049,537.793640 333.483124,541.285278 322.570496,543.197815 
	C299.380096,547.262085 276.331238,546.425781 253.901093,538.402222 
	C252.250046,537.811584 250.803726,536.648682 249.121094,535.442383 
	C263.900879,537.363892 278.755859,540.421753 293.759247,541.617981 
	C312.825684,543.138123 330.939911,538.197449 348.143066,529.995300 
	C354.034637,527.186279 355.021484,527.753052 355.021545,534.626343 
z"/>
<path fill="#FF8270" opacity="1.000000" stroke="none" 
	d="
M658.692810,507.704559 
	C645.613342,519.565735 633.126526,531.585205 619.878662,542.697388 
	C600.968445,558.559021 577.806519,565.169983 554.412598,570.943481 
	C550.375183,571.939941 546.304382,572.955139 542.187500,573.440857 
	C535.639465,574.213440 529.039795,574.547852 522.461914,575.067810 
	C517.181213,575.485291 511.906647,576.030212 506.618164,576.288574 
	C499.982758,576.612732 493.333862,576.908569 486.694550,576.841919 
	C477.879822,576.753357 469.066101,576.362183 460.257477,575.975159 
	C457.278778,575.844177 454.271851,575.549011 451.356171,574.948547 
	C444.126373,573.459595 440.088409,569.063965 440.098907,561.747864 
	C440.125183,543.436401 440.737579,525.125427 440.725403,506.814514 
	C440.705078,476.179260 440.476898,445.543182 440.147003,414.909515 
	C439.971375,398.600006 439.249908,382.296570 439.047974,365.987061 
	C438.849976,349.997131 438.882477,334.001831 439.026398,318.010803 
	C439.177643,301.204102 439.641968,284.400452 439.851501,267.593994 
	C439.975739,257.631073 439.437561,247.640228 440.011017,237.708939 
	C440.453156,230.051590 443.568542,227.273041 451.103394,225.756989 
	C453.531860,225.268372 456.053528,225.121246 458.538757,225.056473 
	C472.469116,224.693466 486.407104,224.559036 500.331543,224.048508 
	C517.154846,223.431656 533.354431,227.427917 549.798401,229.929047 
	C583.536438,235.060593 612.695374,249.336578 639.021057,270.792572 
	C659.298523,287.319061 672.448059,308.435913 682.769104,331.845032 
	C688.213135,344.192383 694.584900,356.370178 695.402771,370.071075 
	C697.196655,400.125275 698.854553,429.926117 687.680115,459.304535 
	C682.457825,473.034119 676.818481,485.980713 668.175598,497.655182 
	C665.523743,501.237183 662.045410,504.207306 658.692810,507.704559 
M585.869995,264.576294 
	C577.393616,261.580719 569.093750,257.857544 560.402039,255.749985 
	C545.093262,252.037903 529.546082,249.308044 514.094299,246.189301 
	C513.453491,246.059982 512.762878,246.104858 512.102417,246.157059 
	C500.004028,247.113388 487.904663,248.058823 475.809875,249.059433 
	C468.674164,249.649765 465.430420,252.630249 465.222046,259.783417 
	C464.902985,270.735291 464.945648,281.702972 465.081451,292.660919 
	C465.169983,299.803528 465.850525,306.937836 465.984802,314.081116 
	C466.137543,322.208282 465.954010,330.341370 465.957733,338.471863 
	C465.967468,359.794250 466.117218,381.117401 465.986847,402.438843 
	C465.874939,420.744476 465.169128,439.049255 465.233398,457.352600 
	C465.334991,486.290894 465.934753,515.227112 466.150177,544.165527 
	C466.198059,550.598511 469.153717,555.045898 475.260345,554.872498 
	C495.541901,554.296326 516.214661,555.539734 536.000122,551.983398 
	C575.027832,544.968262 610.412842,529.638367 637.281128,498.414551 
	C648.965515,484.835968 658.341370,469.912384 664.948792,453.636810 
	C672.754333,434.409637 676.348022,413.947021 674.888977,392.988953 
	C673.833435,377.827301 671.849609,362.699463 665.156494,348.859436 
	C659.513123,337.190063 653.259827,325.770294 646.557922,314.674103 
	C642.113220,307.315155 637.006287,300.152802 631.131226,293.903259 
	C618.710266,280.690582 601.863403,273.897186 585.869995,264.576294 
z"/>
<path fill="#EA4E4E" opacity="1.000000" stroke="none" 
	d="
M586.219482,264.726807 
	C601.863403,273.897186 618.710266,280.690582 631.131226,293.903259 
	C637.006287,300.152802 642.113220,307.315155 646.557922,314.674103 
	C653.259827,325.770294 659.513123,337.190063 665.156494,348.859436 
	C671.849609,362.699463 673.833435,377.827301 674.888977,392.988953 
	C676.348022,413.947021 672.754333,434.409637 664.948792,453.636810 
	C658.341370,469.912384 648.965515,484.835968 637.281128,498.414551 
	C610.412842,529.638367 575.027832,544.968262 536.000122,551.983398 
	C516.214661,555.539734 495.541901,554.296326 475.260345,554.872498 
	C469.153717,555.045898 466.198059,550.598511 466.150177,544.165527 
	C465.934753,515.227112 465.334991,486.290894 465.233398,457.352600 
	C465.169128,439.049255 465.874939,420.744476 465.986847,402.438843 
	C466.117218,381.117401 465.967468,359.794250 465.957733,338.471863 
	C465.954010,330.341370 466.137543,322.208282 465.984802,314.081116 
	C465.850525,306.937836 465.169983,299.803528 465.081451,292.660919 
	C464.945648,281.702972 464.902985,270.735291 465.222046,259.783417 
	C465.430420,252.630249 468.674164,249.649765 475.809875,249.059433 
	C487.904663,248.058823 500.004028,247.113388 512.102417,246.157059 
	C512.762878,246.104858 513.453491,246.059982 514.094299,246.189301 
	C529.546082,249.308044 545.093262,252.037903 560.402039,255.749985 
	C569.093750,257.857544 577.393616,261.580719 586.219482,264.726807 
M663.688477,428.085083 
	C664.670776,421.502441 665.927917,414.947021 666.582886,408.331970 
	C668.397644,390.002869 664.246033,372.474030 657.630798,355.686615 
	C653.439270,345.049744 647.590515,335.006165 641.886108,325.039307 
	C633.322998,310.077576 622.596191,297.086853 606.429749,289.591736 
	C604.517822,288.705353 603.060791,286.885620 601.216064,285.798401 
	C592.385925,280.594025 584.038269,273.795227 574.501404,270.743011 
	C559.231201,265.855896 543.898743,260.789185 527.604736,259.121735 
	C512.853882,257.612183 498.386536,254.449753 483.589691,258.849426 
	C478.836884,260.262604 476.400177,262.638550 476.192719,267.437653 
	C475.998505,271.930084 475.727264,276.423676 475.700592,280.917969 
	C475.619720,294.536469 475.495087,308.157318 475.660126,321.773956 
	C475.857819,338.081207 476.699371,354.387299 476.597656,370.689758 
	C476.483459,388.993408 475.355377,407.289856 475.184448,425.594269 
	C475.060516,438.867401 475.866730,452.146851 476.098328,465.426270 
	C476.490448,487.907959 476.736603,510.392181 477.109192,532.874268 
	C477.141937,534.851501 477.572510,536.836975 477.960358,538.790466 
	C478.799194,543.015747 481.443237,545.036987 485.744324,544.985840 
	C494.206726,544.885315 502.677216,545.017456 511.130493,544.692505 
	C529.863892,543.972534 548.310303,541.402527 565.880737,534.502319 
	C581.725952,528.279663 596.790833,520.829712 610.193665,509.885437 
	C623.055054,499.383331 632.722900,486.399353 642.506409,473.346771 
	C652.545288,459.953491 659.346252,445.058624 663.688477,428.085083 
z"/>
<path fill="#FF8270" opacity="1.000000" stroke="none" 
	d="
M663.584229,428.488739 
	C659.346252,445.058624 652.545288,459.953491 642.506409,473.346771 
	C632.722900,486.399353 623.055054,499.383331 610.193665,509.885437 
	C596.790833,520.829712 581.725952,528.279663 565.880737,534.502319 
	C548.310303,541.402527 529.863892,543.972534 511.130493,544.692505 
	C502.677216,545.017456 494.206726,544.885315 485.744324,544.985840 
	C481.443237,545.036987 478.799194,543.015747 477.960358,538.790466 
	C477.572510,536.836975 477.141937,534.851501 477.109192,532.874268 
	C476.736603,510.392181 476.490448,487.907959 476.098328,465.426270 
	C475.866730,452.146851 475.060516,438.867401 475.184448,425.594269 
	C475.355377,407.289856 476.483459,388.993408 476.597656,370.689758 
	C476.699371,354.387299 475.857819,338.081207 475.660126,321.773956 
	C475.495087,308.157318 475.619720,294.536469 475.700592,280.917969 
	C475.727264,276.423676 475.998505,271.930084 476.192719,267.437653 
	C476.400177,262.638550 478.836884,260.262604 483.589691,258.849426 
	C498.386536,254.449753 512.853882,257.612183 527.604736,259.121735 
	C543.898743,260.789185 559.231201,265.855896 574.501404,270.743011 
	C584.038269,273.795227 592.385925,280.594025 601.216064,285.798401 
	C603.060791,286.885620 604.517822,288.705353 606.429749,289.591736 
	C622.596191,297.086853 633.322998,310.077576 641.886108,325.039307 
	C647.590515,335.006165 653.439270,345.049744 657.630798,355.686615 
	C664.246033,372.474030 668.397644,390.002869 666.582886,408.331970 
	C665.927917,414.947021 664.670776,421.502441 663.584229,428.488739 
M600.956055,313.529755 
	C574.421326,289.550964 543.267456,279.291901 507.696899,282.061707 
	C502.748383,282.447052 500.050568,284.717255 499.943878,289.881470 
	C499.669922,303.146667 498.998688,316.410919 499.042511,329.673676 
	C499.105743,348.814758 500.040802,367.957184 499.892456,387.093475 
	C499.758423,404.382721 498.342255,421.660156 498.108093,438.951111 
	C497.930267,452.083923 498.619354,465.233612 499.115479,478.368530 
	C499.448120,487.174988 499.709808,496.016388 500.730774,504.757141 
	C502.348022,518.603210 505.027618,521.093079 519.193176,520.897827 
	C542.100525,520.582031 563.118347,513.336792 582.175110,500.979065 
	C592.329346,494.394379 602.283447,487.137634 610.969727,478.773712 
	C617.320374,472.658813 621.697754,464.397644 626.525696,456.819794 
	C635.073364,443.403687 638.485779,428.197449 639.527039,412.679718 
	C640.716858,394.948853 642.078064,376.913300 631.901672,360.697357 
	C630.956055,359.190613 630.793518,357.214905 630.068604,355.543091 
	C627.895142,350.530273 626.394897,344.992432 623.230286,340.690552 
	C616.440613,331.460907 608.772217,322.877625 600.956055,313.529755 
z"/>
<path fill="#E84D4D" opacity="1.000000" stroke="none" 
	d="
M601.209839,313.779724 
	C608.772217,322.877625 616.440613,331.460907 623.230286,340.690552 
	C626.394897,344.992432 627.895142,350.530273 630.068604,355.543091 
	C630.793518,357.214905 630.956055,359.190613 631.901672,360.697357 
	C642.078064,376.913300 640.716858,394.948853 639.527039,412.679718 
	C638.485779,428.197449 635.073364,443.403687 626.525696,456.819794 
	C621.697754,464.397644 617.320374,472.658813 610.969727,478.773712 
	C602.283447,487.137634 592.329346,494.394379 582.175110,500.979065 
	C563.118347,513.336792 542.100525,520.582031 519.193176,520.897827 
	C505.027618,521.093079 502.348022,518.603210 500.730774,504.757141 
	C499.709808,496.016388 499.448120,487.174988 499.115479,478.368530 
	C498.619354,465.233612 497.930267,452.083923 498.108093,438.951111 
	C498.342255,421.660156 499.758423,404.382721 499.892456,387.093475 
	C500.040802,367.957184 499.105743,348.814758 499.042511,329.673676 
	C498.998688,316.410919 499.669922,303.146667 499.943878,289.881470 
	C500.050568,284.717255 502.748383,282.447052 507.696899,282.061707 
	C543.267456,279.291901 574.421326,289.550964 601.209839,313.779724 
M618.536682,389.964783 
	C617.310913,384.828247 616.360840,379.605164 614.783203,374.579071 
	C613.149902,369.375732 611.007568,364.321533 608.892212,359.284302 
	C607.741272,356.543640 606.532837,353.705353 604.743286,351.377808 
	C599.670837,344.780334 594.774231,337.937622 588.932678,332.062103 
	C571.089844,314.115540 549.426758,304.238800 523.991760,303.076324 
	C522.731445,303.018738 521.457703,303.256714 520.006104,303.371674 
	C520.006104,310.867157 520.207825,318.001160 519.971863,325.120667 
	C518.830444,359.564972 522.956482,393.924408 520.396851,428.476349 
	C518.744690,450.779144 520.866333,473.362610 521.347717,495.819214 
	C521.374512,497.066772 521.868469,498.304291 522.216125,499.865692 
	C524.169373,499.615021 525.791077,499.441589 527.401672,499.194977 
	C550.638306,495.636963 570.577271,485.154724 588.384766,470.174591 
	C601.192261,459.400513 610.028748,445.987854 614.894897,430.013855 
	C618.784485,417.245453 618.753784,404.063049 618.536682,389.964783 
z"/>
<path fill="#171616" opacity="1.000000" stroke="none" 
	d="
M618.539246,390.425720 
	C618.753784,404.063049 618.784485,417.245453 614.894897,430.013855 
	C610.028748,445.987854 601.192261,459.400513 588.384766,470.174591 
	C570.577271,485.154724 550.638306,495.636963 527.401672,499.194977 
	C525.791077,499.441589 524.169373,499.615021 522.216125,499.865692 
	C521.868469,498.304291 521.374512,497.066772 521.347717,495.819214 
	C520.866333,473.362610 518.744690,450.779144 520.396851,428.476349 
	C522.956482,393.924408 518.830444,359.564972 519.971863,325.120667 
	C520.207825,318.001160 520.006104,310.867157 520.006104,303.371674 
	C521.457703,303.256714 522.731445,303.018738 523.991760,303.076324 
	C549.426758,304.238800 571.089844,314.115540 588.932678,332.062103 
	C594.774231,337.937622 599.670837,344.780334 604.743286,351.377808 
	C606.532837,353.705353 607.741272,356.543640 608.892212,359.284302 
	C611.007568,364.321533 613.149902,369.375732 614.783203,374.579071 
	C616.360840,379.605164 617.310913,384.828247 618.539246,390.425720 
z"/>
</svg>