<svg version="1.1" id="Layer_1" xmlns="http://www.w3.org/2000/svg" xmlns:xlink="http://www.w3.org/1999/xlink" x="0px" y="0px"
	 width="100%" viewBox="0 0 800 800" enable-background="new 0 0 800 800" xml:space="preserve">
<path fill="#FFFFFF" opacity="1.000000" stroke="none" 
	d="
M801.000000,288.000000 
	C801.000000,459.333344 801.000000,630.166687 801.000000,801.000000 
	C534.333313,801.000000 267.666656,801.000000 1.000000,801.000000 
	C1.000000,534.333313 1.000000,267.666656 1.000000,1.000000 
	C267.666656,1.000000 534.333313,1.000000 801.000000,1.000000 
	C801.000000,96.500000 801.000000,192.000000 801.000000,288.000000 
M55.469704,369.904877 
	C52.396297,404.830231 54.333321,439.515015 61.498047,473.795959 
	C74.254204,534.830078 100.741676,589.248840 141.545486,636.511902 
	C183.372635,684.960327 234.410202,720.165833 294.750397,741.557434 
	C342.457703,758.470459 391.611725,764.953979 442.185730,761.175476 
	C476.992554,758.575012 510.660339,751.262268 543.260071,738.924072 
	C603.859009,715.989014 654.613037,679.184265 695.441528,629.054993 
	C742.395325,571.405151 769.115723,505.336945 775.193237,431.096832 
	C779.750610,375.426361 772.396301,321.443939 751.808594,269.425262 
	C721.715454,193.389252 671.674072,133.812378 601.777649,91.669029 
	C525.312622,45.565235 442.370453,30.482243 354.355469,45.081314 
	C284.840607,56.611763 223.758514,86.500603 172.005371,134.193588 
	C103.375435,197.439362 64.633041,275.968842 55.469704,369.904877 
z"/>
<path fill="#E95050" opacity="1.000000" stroke="none" 
	d="
M55.526352,369.447144 
	C64.633041,275.968842 103.375435,197.439362 172.005371,134.193588 
	C223.758514,86.500603 284.840607,56.611763 354.355469,45.081314 
	C442.370453,30.482243 525.312622,45.565235 601.777649,91.669029 
	C671.674072,133.812378 721.715454,193.389252 751.808594,269.425262 
	C772.396301,321.443939 779.750610,375.426361 775.193237,431.096832 
	C769.115723,505.336945 742.395325,571.405151 695.441528,629.054993 
	C654.613037,679.184265 603.859009,715.989014 543.260071,738.924072 
	C510.660339,751.262268 476.992554,758.575012 442.185730,761.175476 
	C391.611725,764.953979 342.457703,758.470459 294.750397,741.557434 
	C234.410202,720.165833 183.372635,684.960327 141.545486,636.511902 
	C100.741676,589.248840 74.254204,534.830078 61.498047,473.795959 
	C54.333321,439.515015 52.396297,404.830231 55.526352,369.447144 
M116.725449,574.747070 
	C140.775528,615.856750 171.809448,650.838257 210.228027,678.907532 
	C279.697601,729.663147 357.571838,751.582825 443.401306,745.206360 
	C486.084900,742.035278 527.066711,731.728638 565.095825,712.297241 
	C677.466309,654.880554 742.710693,563.494995 758.743835,438.019745 
	C764.402283,393.737061 760.214050,349.825317 747.797791,306.928436 
	C722.595459,219.856964 670.986023,152.371933 593.856445,105.259727 
	C526.961060,64.398743 453.765900,49.360519 375.805817,57.853844 
	C325.663269,63.316605 278.986450,79.383827 236.114090,105.668907 
	C174.613831,143.374756 128.737488,195.226288 99.430237,261.325165 
	C72.259453,322.605591 64.163925,386.559082 73.796043,452.783966 
	C80.077110,495.968903 94.656334,536.305908 116.725449,574.747070 
z"/>
<path fill="#FFFEFE" opacity="1.000000" stroke="none" 
	d="
M116.533569,574.433777 
	C94.656334,536.305908 80.077110,495.968903 73.796043,452.783966 
	C64.163925,386.559082 72.259453,322.605591 99.430237,261.325165 
	C128.737488,195.226288 174.613831,143.374756 236.114090,105.668907 
	C278.986450,79.383827 325.663269,63.316605 375.805817,57.853844 
	C453.765900,49.360519 526.961060,64.398743 593.856445,105.259727 
	C670.986023,152.371933 722.595459,219.856964 747.797791,306.928436 
	C760.214050,349.825317 764.402283,393.737061 758.743835,438.019745 
	C742.710693,563.494995 677.466309,654.880554 565.095825,712.297241 
	C527.066711,731.728638 486.084900,742.035278 443.401306,745.206360 
	C357.571838,751.582825 279.697601,729.663147 210.228027,678.907532 
	C171.809448,650.838257 140.775528,615.856750 116.533569,574.433777 
M374.061096,290.037994 
	C374.063080,281.543854 374.356842,273.036743 373.978882,264.559540 
	C373.650055,257.184113 372.718384,249.308273 366.502502,244.569550 
	C359.700775,239.384216 352.333710,234.077072 344.348785,231.465729 
	C318.278442,222.939865 291.080719,222.182999 264.318756,225.991318 
	C245.521973,228.666122 227.086853,234.738907 208.893097,240.554657 
	C190.596664,246.403244 174.015427,255.692383 162.207230,271.607849 
	C154.269653,282.306335 145.904465,292.784790 139.034988,304.150085 
	C132.706589,314.620178 127.304855,325.830902 122.927338,337.263824 
	C112.308273,364.997986 113.656914,394.168884 114.018539,424.066833 
	C113.425987,439.458038 115.248184,454.491913 118.847511,469.536346 
	C131.117783,520.823669 160.528717,558.487915 207.923676,581.324402 
	C244.570160,598.981812 283.385406,605.026428 323.983887,599.714233 
	C337.776672,597.909363 351.209961,595.741455 363.765991,589.422852 
	C369.646149,586.463745 373.343506,582.153320 373.625000,575.578308 
	C373.980316,567.278381 373.880157,558.958923 374.150421,549.768799 
	C374.172119,546.606262 374.360962,543.434326 374.183289,540.283020 
	C373.707184,531.838623 373.734039,523.291138 372.325165,514.994446 
	C370.795563,505.986816 365.624603,503.997162 357.020233,507.535767 
	C351.653534,509.742889 346.190063,511.758392 340.662506,513.523132 
	C317.505829,520.916443 293.917694,521.978882 270.101837,517.593506 
	C241.116913,512.256226 220.313354,494.840088 202.122833,472.655365 
	C187.054779,454.278625 182.791473,433.016113 181.547104,410.032745 
	C182.453110,393.922272 187.594147,379.137177 195.573624,365.242676 
	C213.364899,334.263123 239.194748,314.271759 275.040924,309.540527 
	C303.682770,305.760193 330.758636,312.196808 355.883514,326.317261 
	C364.979828,331.429474 370.277954,330.032257 372.054352,319.678955 
	C373.667633,310.276550 373.373474,300.546875 374.061096,290.037994 
M559.300476,591.873596 
	C575.654053,586.331177 592.619568,582.123474 608.231689,574.964111 
	C639.200867,560.762634 661.600769,535.403259 684.334900,511.178284 
	C695.733337,499.032410 703.145874,483.896332 707.562195,467.044281 
	C711.224609,453.069000 716.413452,439.472870 717.385742,424.940399 
	C718.877625,402.642029 718.990112,380.276703 714.994385,358.225525 
	C711.667542,339.865601 703.103333,323.239014 694.414001,307.001251 
	C687.857483,294.749115 680.694092,282.194885 671.203186,272.255463 
	C640.770813,240.385086 604.760803,217.968140 560.323792,210.197220 
	C534.825867,205.738266 509.597778,200.810867 483.536011,203.772751 
	C477.646210,204.442123 471.624115,203.925095 465.663544,204.000946 
	C460.170746,204.070862 454.594604,203.626129 449.201538,204.412216 
	C429.590454,207.270752 418.477600,219.946152 418.171783,240.390488 
	C417.743744,269.008972 417.885529,297.635986 417.791321,326.259369 
	C417.729919,344.913147 417.384125,363.571960 417.697266,382.219604 
	C418.189423,411.527557 419.613617,440.825867 419.744568,470.132263 
	C419.876282,499.611847 418.689911,529.094910 418.499176,558.579102 
	C418.361511,579.859741 429.331879,592.913391 449.909027,596.552490 
	C455.120483,597.474182 460.523773,597.625671 465.836731,597.603333 
	C486.552917,597.516357 507.290344,597.712769 527.974426,596.786865 
	C538.189697,596.329651 548.305786,593.656372 559.300476,591.873596 
z"/>
<path fill="#01AED0" opacity="1.000000" stroke="none" 
	d="
M181.320267,410.468475 
	C182.791473,433.016113 187.054779,454.278625 202.122833,472.655365 
	C220.313354,494.840088 241.116913,512.256226 270.101837,517.593506 
	C293.917694,521.978882 317.505829,520.916443 340.662506,513.523132 
	C346.190063,511.758392 351.653534,509.742889 357.020233,507.535767 
	C365.624603,503.997162 370.795563,505.986816 372.325165,514.994446 
	C373.734039,523.291138 373.707184,531.838623 374.183289,540.283020 
	C374.360962,543.434326 374.172119,546.606262 373.858795,550.536316 
	C372.585815,557.382141 369.153931,561.757690 363.497772,563.786987 
	C354.095245,567.160400 344.509125,570.022095 334.550171,573.075439 
	C320.169769,574.002258 306.250275,575.207458 292.304779,575.800781 
	C284.870819,576.117004 277.391876,575.375549 269.516479,575.115295 
	C267.876862,574.762207 266.675812,574.231384 265.427887,574.075317 
	C252.815369,572.497803 240.832626,568.795349 228.859619,564.541870 
	C196.825867,553.161865 169.424149,535.385681 148.767563,508.113251 
	C137.973007,493.861450 128.618149,478.665985 123.837250,461.190735 
	C120.385277,448.572937 117.355774,435.839600 114.137840,423.157776 
	C113.656914,394.168884 112.308273,364.997986 122.927338,337.263824 
	C127.304855,325.830902 132.706589,314.620178 139.034988,304.150085 
	C145.904465,292.784790 154.269653,282.306335 162.207230,271.607849 
	C174.015427,255.692383 190.596664,246.403244 208.893097,240.554657 
	C227.086853,234.738907 245.521973,228.666122 264.318756,225.991318 
	C291.080719,222.182999 318.278442,222.939865 344.348785,231.465729 
	C352.333710,234.077072 359.700775,239.384216 366.502502,244.569550 
	C372.718384,249.308273 373.650055,257.184113 373.978882,264.559540 
	C374.356842,273.036743 374.063080,281.543854 373.674530,290.674805 
	C372.798950,292.891174 372.324066,294.475250 371.818512,296.049469 
	C369.390350,303.610168 364.237793,306.081940 357.753082,301.517914 
	C350.861603,296.667572 343.365570,294.029022 335.445587,291.854919 
	C322.370758,288.265778 309.419373,284.161194 295.358582,283.882874 
	C292.738586,283.368805 290.439575,282.794464 288.122742,282.710327 
	C285.554260,282.617065 282.922180,282.715942 280.401367,283.182587 
	C274.545258,284.266663 268.739471,285.622253 262.510223,286.948303 
	C256.349396,288.900543 250.325516,290.200134 244.876221,292.735016 
	C203.370819,312.042236 175.391342,359.638977 181.320267,410.468475 
M151.032928,416.245575 
	C151.700272,400.007080 152.367599,383.768616 153.012482,366.822510 
	C153.637985,364.929901 154.163147,362.997040 154.904465,361.150909 
	C162.529343,342.162842 169.456955,322.756012 184.036743,307.589569 
	C198.819229,292.212280 213.591263,276.838501 234.487793,269.416260 
	C264.000519,258.933716 293.901550,254.999603 324.677490,263.098053 
	C333.675415,265.465759 342.609741,268.109772 351.685333,270.121460 
	C353.789520,270.587891 356.352814,268.983337 358.704834,268.331726 
	C357.154266,266.404785 355.976410,263.432678 353.991119,262.724640 
	C343.078552,258.832794 332.183136,254.233047 320.868134,252.307404 
	C308.538513,250.209076 295.761902,250.610870 283.171021,250.204391 
	C264.556213,249.603409 246.815414,254.515198 229.787216,261.028961 
	C214.681839,266.807129 200.937866,275.507507 190.318634,288.311523 
	C188.320679,290.720551 185.496262,292.426544 183.344345,294.729034 
	C178.374557,300.046631 173.231140,305.258850 168.791168,311.003113 
	C158.771194,323.966583 153.834610,339.481201 147.773270,354.424072 
	C141.344391,370.273071 140.858917,386.802521 141.924774,404.515015 
	C143.937210,419.582764 145.304153,434.777802 148.239258,449.663635 
	C149.668304,456.911285 154.026047,463.581421 157.552567,470.947601 
	C158.102066,472.153442 158.581055,473.397552 159.211578,474.559418 
	C169.198242,492.960938 182.425522,508.442322 199.203308,521.162842 
	C211.988495,530.856323 226.141556,538.134155 241.014862,542.901245 
	C266.305603,551.007324 292.444916,555.907288 319.224182,550.833496 
	C328.316315,549.110840 337.300690,546.546997 346.094269,543.641113 
	C350.229065,542.274719 354.235352,539.601318 355.141724,533.838867 
	C354.975891,527.808899 353.849579,526.893188 348.879547,529.685852 
	C335.990662,536.928162 321.648468,539.990295 307.453064,541.453430 
	C294.893616,542.747925 281.914307,540.667419 269.188629,539.394653 
	C261.315247,538.607178 253.569382,536.544434 245.144684,534.718140 
	C226.238373,525.592224 207.171448,516.715820 191.667374,502.038025 
	C177.085236,488.232971 166.263992,471.847473 159.573105,452.970520 
	C156.593750,444.564850 155.031052,435.657013 152.926941,426.170227 
	C152.338104,423.125549 151.749268,420.080902 151.032928,416.245575 
z"/>
<path fill="#E94E4E" opacity="1.000000" stroke="none" 
	d="
M558.883667,591.929688 
	C548.305786,593.656372 538.189697,596.329651 527.974426,596.786865 
	C507.290344,597.712769 486.552917,597.516357 465.836731,597.603333 
	C460.523773,597.625671 455.120483,597.474182 449.909027,596.552490 
	C429.331879,592.913391 418.361511,579.859741 418.499176,558.579102 
	C418.689911,529.094910 419.876282,499.611847 419.744568,470.132263 
	C419.613617,440.825867 418.189423,411.527557 417.697266,382.219604 
	C417.384125,363.571960 417.729919,344.913147 417.791321,326.259369 
	C417.885529,297.635986 417.743744,269.008972 418.171783,240.390488 
	C418.477600,219.946152 429.590454,207.270752 449.201538,204.412216 
	C454.594604,203.626129 460.170746,204.070862 465.663544,204.000946 
	C471.624115,203.925095 477.646210,204.442123 483.536011,203.772751 
	C509.597778,200.810867 534.825867,205.738266 560.323792,210.197220 
	C604.760803,217.968140 640.770813,240.385086 671.203186,272.255463 
	C680.694092,282.194885 687.857483,294.749115 694.414001,307.001251 
	C703.103333,323.239014 711.667542,339.865601 714.994385,358.225525 
	C718.990112,380.276703 718.877625,402.642029 717.385742,424.940399 
	C716.413452,439.472870 711.224609,453.069000 707.562195,467.044281 
	C703.145874,483.896332 695.733337,499.032410 684.334900,511.178284 
	C661.600769,535.403259 639.200867,560.762634 608.231689,574.964111 
	C592.619568,582.123474 575.654053,586.331177 558.883667,591.929688 
M696.090637,419.771576 
	C696.381836,418.141907 696.951355,416.506927 696.920532,414.883362 
	C696.655701,400.923065 696.372559,386.961639 695.875000,373.008362 
	C695.758240,369.734955 695.225403,366.347290 694.162659,363.260529 
	C690.711487,353.235779 687.393860,343.122681 683.172424,333.414246 
	C674.069702,312.480377 663.680298,292.447083 645.842163,277.057587 
	C632.051453,265.159973 617.586304,254.429214 601.556641,245.853088 
	C585.083008,237.039444 566.982544,233.507736 548.876038,229.976959 
	C533.909546,227.058472 519.004639,223.608246 503.640411,224.087189 
	C493.208801,224.412384 482.803406,225.566940 472.371796,225.911575 
	C466.761963,226.096924 461.099945,224.886063 455.499939,225.143036 
	C446.805817,225.541977 439.361359,228.556717 439.893677,240.202316 
	C440.186859,246.617355 440.025146,253.058014 439.929840,259.485077 
	C439.658600,277.775238 438.906189,296.068451 439.089203,314.352997 
	C439.443695,349.770752 440.649261,385.181396 440.860260,420.598785 
	C441.045563,451.716034 440.314789,482.838257 440.066681,513.958862 
	C439.949829,528.619202 440.009583,543.281067 440.001251,557.942200 
	C439.994598,569.611389 442.569733,572.879883 453.935760,575.441589 
	C455.696381,575.838440 457.546387,575.913696 459.360992,575.983521 
	C468.320801,576.328674 477.292114,577.044922 486.241608,576.842529 
	C503.142365,576.460388 520.210876,576.828735 536.877258,574.503235 
	C556.057495,571.826782 574.875488,566.464233 592.804871,558.803589 
	C599.491333,555.946594 605.978333,552.375000 612.042419,548.354248 
	C631.989075,535.129089 648.352844,517.710693 665.126526,500.951538 
	C674.713257,491.373108 681.835876,479.480713 685.521545,466.011505 
	C686.436462,462.667725 687.299500,459.293610 688.488281,456.043854 
	C692.671753,444.607208 695.777771,432.959015 696.090637,419.771576 
z"/>
<path fill="#1C0505" opacity="1.000000" stroke="none" 
	d="
M335.000305,573.099243 
	C344.509125,570.022095 354.095245,567.160400 363.497772,563.786987 
	C369.153931,561.757690 372.585815,557.382141 373.771820,550.975830 
	C373.880157,558.958923 373.980316,567.278381 373.625000,575.578308 
	C373.343506,582.153320 369.646149,586.463745 363.765991,589.422852 
	C351.209961,595.741455 337.776672,597.909363 323.983887,599.714233 
	C283.385406,605.026428 244.570160,598.981812 207.923676,581.324402 
	C160.528717,558.487915 131.117783,520.823669 118.847511,469.536346 
	C115.248184,454.491913 113.425987,439.458038 114.078186,423.612305 
	C117.355774,435.839600 120.385277,448.572937 123.837250,461.190735 
	C128.618149,478.665985 137.973007,493.861450 148.767563,508.113251 
	C169.424149,535.385681 196.825867,553.161865 228.859619,564.541870 
	C240.832626,568.795349 252.815369,572.497803 265.427887,574.075317 
	C266.675812,574.231384 267.876862,574.762207 269.691132,575.472778 
	C274.375549,576.411560 278.451294,577.204346 282.564514,577.545959 
	C300.283447,579.017395 317.823395,578.134399 335.000305,573.099243 
z"/>
<path fill="#1C0505" opacity="1.000000" stroke="none" 
	d="
M295.671722,284.038727 
	C309.419373,284.161194 322.370758,288.265778 335.445587,291.854919 
	C343.365570,294.029022 350.861603,296.667572 357.753082,301.517914 
	C364.237793,306.081940 369.390350,303.610168 371.818512,296.049469 
	C372.324066,294.475250 372.798950,292.891174 373.604095,291.136536 
	C373.373474,300.546875 373.667633,310.276550 372.054352,319.678955 
	C370.277954,330.032257 364.979828,331.429474 355.883514,326.317261 
	C330.758636,312.196808 303.682770,305.760193 275.040924,309.540527 
	C239.194748,314.271759 213.364899,334.263123 195.573624,365.242676 
	C187.594147,379.137177 182.453110,393.922272 181.433685,410.250610 
	C175.391342,359.638977 203.370819,312.042236 244.876221,292.735016 
	C250.325516,290.200134 256.349396,288.900543 262.940918,287.004883 
	C274.407013,286.000244 285.039368,285.019501 295.671722,284.038727 
z"/>
<path fill="#1A0809" opacity="1.000000" stroke="none" 
	d="
M141.737228,403.523560 
	C140.858917,386.802521 141.344391,370.273071 147.773270,354.424072 
	C153.834610,339.481201 158.771194,323.966583 168.791168,311.003113 
	C173.231140,305.258850 178.374557,300.046631 183.344345,294.729034 
	C185.496262,292.426544 188.320679,290.720551 190.318634,288.311523 
	C200.937866,275.507507 214.681839,266.807129 229.787216,261.028961 
	C246.815414,254.515198 264.556213,249.603409 283.171021,250.204391 
	C295.761902,250.610870 308.538513,250.209076 320.868134,252.307404 
	C332.183136,254.233047 343.078552,258.832794 353.991119,262.724640 
	C355.976410,263.432678 357.154266,266.404785 358.704834,268.331726 
	C356.352814,268.983337 353.789520,270.587891 351.685333,270.121460 
	C342.609741,268.109772 333.675415,265.465759 324.677490,263.098053 
	C293.901550,254.999603 264.000519,258.933716 234.487793,269.416260 
	C213.591263,276.838501 198.819229,292.212280 184.036743,307.589569 
	C169.456955,322.756012 162.529343,342.162842 154.904465,361.150909 
	C154.163147,362.997040 153.637985,364.929901 152.796783,367.486389 
	C148.966461,379.941376 145.351837,391.732452 141.737228,403.523560 
z"/>
<path fill="#1B090A" opacity="1.000000" stroke="none" 
	d="
M152.825363,426.977112 
	C155.031052,435.657013 156.593750,444.564850 159.573105,452.970520 
	C166.263992,471.847473 177.085236,488.232971 191.667374,502.038025 
	C207.171448,516.715820 226.238373,525.592224 245.628067,535.210693 
	C282.582306,550.734253 318.841614,548.160583 354.966431,534.395142 
	C354.235352,539.601318 350.229065,542.274719 346.094269,543.641113 
	C337.300690,546.546997 328.316315,549.110840 319.224182,550.833496 
	C292.444916,555.907288 266.305603,551.007324 241.014862,542.901245 
	C226.141556,538.134155 211.988495,530.856323 199.203308,521.162842 
	C182.425522,508.442322 169.198242,492.960938 159.211578,474.559418 
	C158.581055,473.397552 158.102066,472.153442 157.305725,470.279510 
	C153.277069,456.002655 150.833862,442.203705 151.361679,427.887817 
	C151.991165,427.500885 152.408264,427.239014 152.825363,426.977112 
z"/>
<path fill="#F4F8F9" opacity="1.000000" stroke="none" 
	d="
M151.149292,428.012878 
	C150.833862,442.203705 153.277069,456.002655 157.058472,470.062195 
	C154.026047,463.581421 149.668304,456.911285 148.239258,449.663635 
	C145.304153,434.777802 143.937210,419.582764 141.830994,404.019287 
	C145.351837,391.732452 148.966461,379.941376 152.808014,367.840210 
	C152.367599,383.768616 151.700272,400.007080 151.016937,417.092560 
	C151.050385,421.297333 151.099838,424.655090 151.149292,428.012878 
z"/>
<path fill="#EEF3F4" opacity="1.000000" stroke="none" 
	d="
M355.054077,534.117004 
	C318.841614,548.160583 282.582306,550.734253 245.938858,535.378723 
	C253.569382,536.544434 261.315247,538.607178 269.188629,539.394653 
	C281.914307,540.667419 294.893616,542.747925 307.453064,541.453430 
	C321.648468,539.990295 335.990662,536.928162 348.879547,529.685852 
	C353.849579,526.893188 354.975891,527.808899 355.054077,534.117004 
z"/>
<path fill="#E0EAED" opacity="1.000000" stroke="none" 
	d="
M334.550171,573.075439 
	C317.823395,578.134399 300.283447,579.017395 282.564514,577.545959 
	C278.451294,577.204346 274.375549,576.411560 270.107910,575.468994 
	C277.391876,575.375549 284.870819,576.117004 292.304779,575.800781 
	C306.250275,575.207458 320.169769,574.002258 334.550171,573.075439 
z"/>
<path fill="#BBCDD1" opacity="1.000000" stroke="none" 
	d="
M295.358582,283.882874 
	C285.039368,285.019501 274.407013,286.000244 263.343964,286.924377 
	C268.739471,285.622253 274.545258,284.266663 280.401367,283.182587 
	C282.922180,282.715942 285.554260,282.617065 288.122742,282.710327 
	C290.439575,282.794464 292.738586,283.368805 295.358582,283.882874 
z"/>
<path fill="#3B3234" opacity="1.000000" stroke="none" 
	d="
M151.361679,427.887817 
	C151.099838,424.655090 151.050385,421.297333 151.080688,417.487885 
	C151.749268,420.080902 152.338104,423.125549 152.876160,426.573669 
	C152.408264,427.239014 151.991165,427.500885 151.361679,427.887817 
z"/>
<path fill="#FF8270" opacity="1.000000" stroke="none" 
	d="
M696.067932,420.232666 
	C695.777771,432.959015 692.671753,444.607208 688.488281,456.043854 
	C687.299500,459.293610 686.436462,462.667725 685.521545,466.011505 
	C681.835876,479.480713 674.713257,491.373108 665.126526,500.951538 
	C648.352844,517.710693 631.989075,535.129089 612.042419,548.354248 
	C605.978333,552.375000 599.491333,555.946594 592.804871,558.803589 
	C574.875488,566.464233 556.057495,571.826782 536.877258,574.503235 
	C520.210876,576.828735 503.142365,576.460388 486.241608,576.842529 
	C477.292114,577.044922 468.320801,576.328674 459.360992,575.983521 
	C457.546387,575.913696 455.696381,575.838440 453.935760,575.441589 
	C442.569733,572.879883 439.994598,569.611389 440.001251,557.942200 
	C440.009583,543.281067 439.949829,528.619202 440.066681,513.958862 
	C440.314789,482.838257 441.045563,451.716034 440.860260,420.598785 
	C440.649261,385.181396 439.443695,349.770752 439.089203,314.352997 
	C438.906189,296.068451 439.658600,277.775238 439.929840,259.485077 
	C440.025146,253.058014 440.186859,246.617355 439.893677,240.202316 
	C439.361359,228.556717 446.805817,225.541977 455.499939,225.143036 
	C461.099945,224.886063 466.761963,226.096924 472.371796,225.911575 
	C482.803406,225.566940 493.208801,224.412384 503.640411,224.087189 
	C519.004639,223.608246 533.909546,227.058472 548.876038,229.976959 
	C566.982544,233.507736 585.083008,237.039444 601.556641,245.853088 
	C617.586304,254.429214 632.051453,265.159973 645.842163,277.057587 
	C663.680298,292.447083 674.069702,312.480377 683.172424,333.414246 
	C687.393860,343.122681 690.711487,353.235779 694.162659,363.260529 
	C695.225403,366.347290 695.758240,369.734955 695.875000,373.008362 
	C696.372559,386.961639 696.655701,400.923065 696.920532,414.883362 
	C696.951355,416.506927 696.381836,418.141907 696.067932,420.232666 
M662.505981,343.954010 
	C659.823547,338.615631 657.379333,333.140686 654.411865,327.965790 
	C646.981201,315.007751 640.387146,301.269104 628.704712,291.496185 
	C621.377869,285.366913 612.783936,280.772583 604.911682,275.270447 
	C591.638672,265.993591 576.714600,260.450562 561.359863,256.007172 
	C554.084656,253.901871 546.540649,252.716019 539.106140,251.172745 
	C530.705688,249.428940 522.293274,247.742783 513.879761,246.062622 
	C513.240173,245.934906 512.547729,246.011230 511.885803,246.065399 
	C500.005066,247.037323 488.130554,248.093185 476.243011,248.972244 
	C469.749603,249.452408 466.202545,251.405228 465.594208,257.246216 
	C464.599792,266.793793 464.296753,276.448212 464.327515,286.055573 
	C464.348602,292.649597 465.815155,299.232086 465.954163,305.834076 
	C466.222626,318.585327 466.092773,331.347473 465.978973,344.103790 
	C465.707275,374.556305 465.245270,405.007477 465.083984,435.460388 
	C465.030396,445.585480 465.809998,455.712219 465.938354,465.841644 
	C466.109344,479.334656 465.999084,492.831085 466.046967,506.325897 
	C466.061157,510.318237 466.253632,514.309875 466.272552,518.302246 
	C466.310944,526.406738 466.820953,534.557251 466.132294,542.602844 
	C465.491760,550.086426 468.965851,555.084778 476.564667,554.968445 
	C491.025299,554.747070 505.494171,554.559692 519.938049,553.891724 
	C533.889526,553.246582 547.543213,550.929626 560.779724,546.027161 
	C576.541626,540.189514 592.462952,534.743347 606.664795,525.538574 
	C620.330933,516.681030 631.503784,505.010254 641.847656,492.586639 
	C653.530090,478.555359 662.119995,462.772278 667.767517,445.355682 
	C675.119385,422.683350 677.144958,399.637939 672.934448,376.158813 
	C670.974609,365.230591 669.017029,354.233643 662.505981,343.954010 
z"/>
<path fill="#EA4E4E" opacity="1.000000" stroke="none" 
	d="
M662.682373,344.284821 
	C669.017029,354.233643 670.974609,365.230591 672.934448,376.158813 
	C677.144958,399.637939 675.119385,422.683350 667.767517,445.355682 
	C662.119995,462.772278 653.530090,478.555359 641.847656,492.586639 
	C631.503784,505.010254 620.330933,516.681030 606.664795,525.538574 
	C592.462952,534.743347 576.541626,540.189514 560.779724,546.027161 
	C547.543213,550.929626 533.889526,553.246582 519.938049,553.891724 
	C505.494171,554.559692 491.025299,554.747070 476.564667,554.968445 
	C468.965851,555.084778 465.491760,550.086426 466.132294,542.602844 
	C466.820953,534.557251 466.310944,526.406738 466.272552,518.302246 
	C466.253632,514.309875 466.061157,510.318237 466.046967,506.325897 
	C465.999084,492.831085 466.109344,479.334656 465.938354,465.841644 
	C465.809998,455.712219 465.030396,445.585480 465.083984,435.460388 
	C465.245270,405.007477 465.707275,374.556305 465.978973,344.103790 
	C466.092773,331.347473 466.222626,318.585327 465.954163,305.834076 
	C465.815155,299.232086 464.348602,292.649597 464.327515,286.055573 
	C464.296753,276.448212 464.599792,266.793793 465.594208,257.246216 
	C466.202545,251.405228 469.749603,249.452408 476.243011,248.972244 
	C488.130554,248.093185 500.005066,247.037323 511.885803,246.065399 
	C512.547729,246.011230 513.240173,245.934906 513.879761,246.062622 
	C522.293274,247.742783 530.705688,249.428940 539.106140,251.172745 
	C546.540649,252.716019 554.084656,253.901871 561.359863,256.007172 
	C576.714600,260.450562 591.638672,265.993591 604.911682,275.270447 
	C612.783936,280.772583 621.377869,285.366913 628.704712,291.496185 
	C640.387146,301.269104 646.981201,315.007751 654.411865,327.965790 
	C657.379333,333.140686 659.823547,338.615631 662.682373,344.284821 
M474.962982,291.299469 
	C474.730652,293.598206 474.219208,295.907928 474.309448,298.193939 
	C475.141052,319.253265 476.652069,340.304138 476.811920,361.366211 
	C476.956726,380.448486 475.327484,399.537842 475.106781,418.631287 
	C474.930969,433.843964 475.771973,449.066345 476.031097,464.286621 
	C476.424805,487.408783 476.686127,510.533203 477.072052,533.655518 
	C477.102051,535.451782 477.664429,537.239929 477.987366,539.030396 
	C478.722260,543.104614 481.189392,545.028809 485.301483,545.003845 
	C493.889801,544.951721 502.513580,545.414062 511.057892,544.784546 
	C521.766052,543.995667 532.582947,543.132202 543.048706,540.884338 
	C578.512573,533.267517 609.243408,517.214600 631.570496,487.730591 
	C639.665588,477.040619 647.864136,466.148712 653.971741,454.295776 
	C664.731750,433.413940 669.726440,410.824432 665.794617,387.290649 
	C663.875061,375.800812 660.595764,364.368225 656.457397,353.469635 
	C652.761414,343.736115 647.046143,334.768127 642.200623,325.473480 
	C641.433533,324.002075 640.497070,322.618713 639.735352,321.144775 
	C629.852661,302.021179 610.947144,292.798004 594.877441,280.549042 
	C581.731689,270.528839 565.257324,268.293823 550.069275,263.224091 
	C542.789185,260.794037 534.804260,260.473816 527.137695,259.203278 
	C512.742065,256.817566 498.454163,254.426208 483.853729,258.770508 
	C478.810425,260.271149 476.374207,262.619629 476.083191,267.492920 
	C475.628204,275.113312 475.332306,282.743256 474.962982,291.299469 
z"/>
<path fill="#FF8270" opacity="1.000000" stroke="none" 
	d="
M474.966003,290.834290 
	C475.332306,282.743256 475.628204,275.113312 476.083191,267.492920 
	C476.374207,262.619629 478.810425,260.271149 483.853729,258.770508 
	C498.454163,254.426208 512.742065,256.817566 527.137695,259.203278 
	C534.804260,260.473816 542.789185,260.794037 550.069275,263.224091 
	C565.257324,268.293823 581.731689,270.528839 594.877441,280.549042 
	C610.947144,292.798004 629.852661,302.021179 639.735352,321.144775 
	C640.497070,322.618713 641.433533,324.002075 642.200623,325.473480 
	C647.046143,334.768127 652.761414,343.736115 656.457397,353.469635 
	C660.595764,364.368225 663.875061,375.800812 665.794617,387.290649 
	C669.726440,410.824432 664.731750,433.413940 653.971741,454.295776 
	C647.864136,466.148712 639.665588,477.040619 631.570496,487.730591 
	C609.243408,517.214600 578.512573,533.267517 543.048706,540.884338 
	C532.582947,543.132202 521.766052,543.995667 511.057892,544.784546 
	C502.513580,545.414062 493.889801,544.951721 485.301483,545.003845 
	C481.189392,545.028809 478.722260,543.104614 477.987366,539.030396 
	C477.664429,537.239929 477.102051,535.451782 477.072052,533.655518 
	C476.686127,510.533203 476.424805,487.408783 476.031097,464.286621 
	C475.771973,449.066345 474.930969,433.843964 475.106781,418.631287 
	C475.327484,399.537842 476.956726,380.448486 476.811920,361.366211 
	C476.652069,340.304138 475.141052,319.253265 474.309448,298.193939 
	C474.219208,295.907928 474.730652,293.598206 474.966003,290.834290 
M639.963440,411.192810 
	C639.717041,400.895386 640.968506,390.274933 638.835449,380.384430 
	C636.313660,368.691925 631.545776,357.313568 626.449707,346.407349 
	C623.136047,339.315857 617.721191,333.138153 612.860840,326.850128 
	C598.555603,308.343018 580.049805,295.460571 558.127686,287.667328 
	C541.589722,281.788147 524.308411,281.180573 506.942047,282.011749 
	C502.545776,282.222198 500.427368,284.455261 499.962677,288.843018 
	C498.564758,302.043365 497.777740,315.141785 498.722015,328.521362 
	C500.067047,347.579224 500.004669,366.763123 499.885437,385.889069 
	C499.792358,400.817078 498.470184,415.733795 498.137146,430.665375 
	C497.952423,438.949341 498.684814,447.253204 498.988708,455.548645 
	C499.675812,474.307037 500.379913,493.064880 501.014526,511.825073 
	C501.153625,515.936829 503.141357,517.924744 507.100189,519.091309 
	C521.918274,523.458008 536.048035,519.818909 550.143005,515.805908 
	C569.366516,510.332855 585.675659,499.640228 601.209656,487.395203 
	C616.844482,475.070679 627.355469,459.189087 633.731384,440.713196 
	C636.889526,431.561584 637.927673,421.678345 639.963440,411.192810 
z"/>
<path fill="#E94E4E" opacity="1.000000" stroke="none" 
	d="
M639.944214,411.659485 
	C637.927673,421.678345 636.889526,431.561584 633.731384,440.713196 
	C627.355469,459.189087 616.844482,475.070679 601.209656,487.395203 
	C585.675659,499.640228 569.366516,510.332855 550.143005,515.805908 
	C536.048035,519.818909 521.918274,523.458008 507.100189,519.091309 
	C503.141357,517.924744 501.153625,515.936829 501.014526,511.825073 
	C500.379913,493.064880 499.675812,474.307037 498.988708,455.548645 
	C498.684814,447.253204 497.952423,438.949341 498.137146,430.665375 
	C498.470184,415.733795 499.792358,400.817078 499.885437,385.889069 
	C500.004669,366.763123 500.067047,347.579224 498.722015,328.521362 
	C497.777740,315.141785 498.564758,302.043365 499.962677,288.843018 
	C500.427368,284.455261 502.545776,282.222198 506.942047,282.011749 
	C524.308411,281.180573 541.589722,281.788147 558.127686,287.667328 
	C580.049805,295.460571 598.555603,308.343018 612.860840,326.850128 
	C617.721191,333.138153 623.136047,339.315857 626.449707,346.407349 
	C631.545776,357.313568 636.313660,368.691925 638.835449,380.384430 
	C640.968506,390.274933 639.717041,400.895386 639.944214,411.659485 
M609.005371,359.655640 
	C604.507751,352.918976 600.475525,345.808990 595.426575,339.514465 
	C579.213379,319.301392 558.157288,307.282867 532.374817,303.850922 
	C528.350891,303.315308 524.270996,303.199951 520.169861,302.886658 
	C520.169861,313.179504 520.053589,322.638672 520.194885,332.093994 
	C520.458618,349.738068 521.003113,367.378571 521.176636,385.023071 
	C521.291077,396.657562 521.126770,408.301483 520.771362,419.931519 
	C520.542847,427.409454 519.185669,434.879028 519.308838,442.336273 
	C519.583435,458.971985 520.449463,475.598419 521.126648,492.226471 
	C521.225586,494.655151 521.610962,497.072144 521.901001,499.850555 
	C523.861511,499.629272 525.313660,499.514069 526.750183,499.295959 
	C549.591187,495.827515 569.367310,485.846741 587.076111,471.250793 
	C600.962830,459.805054 611.218628,445.773895 615.138000,428.243896 
	C619.695068,407.861786 622.705750,387.176636 611.414551,367.536621 
	C610.203674,365.430450 609.891418,362.807617 609.005371,359.655640 
z"/>
<path fill="#FFFEFE" opacity="1.000000" stroke="none" 
	d="
M609.083862,360.040039 
	C609.891418,362.807617 610.203674,365.430450 611.414551,367.536621 
	C622.705750,387.176636 619.695068,407.861786 615.138000,428.243896 
	C611.218628,445.773895 600.962830,459.805054 587.076111,471.250793 
	C569.367310,485.846741 549.591187,495.827515 526.750183,499.295959 
	C525.313660,499.514069 523.861511,499.629272 521.901001,499.850555 
	C521.610962,497.072144 521.225586,494.655151 521.126648,492.226471 
	C520.449463,475.598419 519.583435,458.971985 519.308838,442.336273 
	C519.185669,434.879028 520.542847,427.409454 520.771362,419.931519 
	C521.126770,408.301483 521.291077,396.657562 521.176636,385.023071 
	C521.003113,367.378571 520.458618,349.738068 520.194885,332.093994 
	C520.053589,322.638672 520.169861,313.179504 520.169861,302.886658 
	C524.270996,303.199951 528.350891,303.315308 532.374817,303.850922 
	C558.157288,307.282867 579.213379,319.301392 595.426575,339.514465 
	C600.475525,345.808990 604.507751,352.918976 609.083862,360.040039 
z"/>
</svg>